<svg viewBox="0 0 330 200" xmlns="http://www.w3.org/2000/svg"><g><g><g><g><g><line x1="30" y1="177" x2="25" y2="177" style="visibility: inherit;" fill="rgb(0, 0, 0)" stroke="rgb(204, 204, 204)" stroke-width="1px"></line><line x1="30" y1="160.9090909090909" x2="25" y2="160.9090909090909" style="visibility: inherit;" fill="rgb(0, 0, 0)" stroke="rgb(204, 204, 204)" stroke-width="1px"></line><line x1="30" y1="144.8181818181818" x2="25" y2="144.8181818181818" style="visibility: inherit;" fill="rgb(0, 0, 0)" stroke="rgb(204, 204, 204)" stroke-width="1px"></line><line x1="30" y1="128.72727272727272" x2="25" y2="128.72727272727272" style="visibility: inherit;" fill="rgb(0, 0, 0)" stroke="rgb(204, 204, 204)" stroke-width="1px"></line><line x1="30" y1="112.63636363636364" x2="25" y2="112.63636363636364" style="visibility: inherit;" fill="rgb(0, 0, 0)" stroke="rgb(204, 204, 204)" stroke-width="1px"></line><line x1="30" y1="96.54545454545453" x2="25" y2="96.54545454545453" style="visibility: inherit;" fill="rgb(0, 0, 0)" stroke="rgb(204, 204, 204)" stroke-width="1px"></line><line x1="30" y1="80.45454545454547" x2="25" y2="80.45454545454547" style="visibility: inherit;" fill="rgb(0, 0, 0)" stroke="rgb(204, 204, 204)" stroke-width="1px"></line><line x1="30" y1="64.36363636363636" x2="25" y2="64.36363636363636" style="visibility: inherit;" fill="rgb(0, 0, 0)" stroke="rgb(204, 204, 204)" stroke-width="1px"></line><line x1="30" y1="48.272727272727266" x2="25" y2="48.272727272727266" style="visibility: inherit;" fill="rgb(0, 0, 0)" stroke="rgb(204, 204, 204)" stroke-width="1px"></line><line x1="30" y1="32.18181818181817" x2="25" y2="32.18181818181817" style="visibility: inherit;" fill="rgb(0, 0, 0)" stroke="rgb(204, 204, 204)" stroke-width="1px"></line><line x1="30" y1="16.090909090909097" x2="25" y2="16.090909090909097" style="visibility: inherit;" fill="rgb(0, 0, 0)" stroke="rgb(204, 204, 204)" stroke-width="1px"></line><line x1="30" y1="0" x2="25" y2="0" style="visibility: inherit;" fill="rgb(0, 0, 0)" stroke="rgb(204, 204, 204)" stroke-width="1px"></line></g><g transform="translate(20, 0)"><text x="0" y="177" dx="0em" dy="0.3em" style="text-anchor: end; visibility: hidden; font-family: Roboto, sans-serif; font-size: 12px; font-weight: 200;" fill="rgb(33, 33, 33)" stroke="none" stroke-width="1px">0</text><text x="0" y="160.9090909090909" dx="0em" dy="0.3em" style="text-anchor: end; visibility: inherit; font-family: Roboto, sans-serif; font-size: 12px; font-weight: 200;" fill="rgb(33, 33, 33)" stroke="none" stroke-width="1px">1</text><text x="0" y="144.8181818181818" dx="0em" dy="0.3em" style="text-anchor: end; visibility: hidden; font-family: Roboto, sans-serif; font-size: 12px; font-weight: 200;" fill="rgb(33, 33, 33)" stroke="none" stroke-width="1px">2</text><text x="0" y="128.72727272727272" dx="0em" dy="0.3em" style="text-anchor: end; visibility: inherit; font-family: Roboto, sans-serif; font-size: 12px; font-weight: 200;" fill="rgb(33, 33, 33)" stroke="none" stroke-width="1px">3</text><text x="0" y="112.63636363636364" dx="0em" dy="0.3em" style="text-anchor: end; visibility: hidden; font-family: Roboto, sans-serif; font-size: 12px; font-weight: 200;" fill="rgb(33, 33, 33)" stroke="none" stroke-width="1px">4</text><text x="0" y="96.54545454545453" dx="0em" dy="0.3em" style="text-anchor: end; visibility: inherit; font-family: Roboto, sans-serif; font-size: 12px; font-weight: 200;" fill="rgb(33, 33, 33)" stroke="none" stroke-width="1px">5</text><text x="0" y="80.45454545454547" dx="0em" dy="0.3em" style="text-anchor: end; visibility: hidden; font-family: Roboto, sans-serif; font-size: 12px; font-weight: 200;" fill="rgb(33, 33, 33)" stroke="none" stroke-width="1px">6</text><text x="0" y="64.36363636363636" dx="0em" dy="0.3em" style="text-anchor: end; visibility: inherit; font-family: Roboto, sans-serif; font-size: 12px; font-weight: 200;" fill="rgb(33, 33, 33)" stroke="none" stroke-width="1px">7</text><text x="0" y="48.272727272727266" dx="0em" dy="0.3em" style="text-anchor: end; visibility: hidden; font-family: Roboto, sans-serif; font-size: 12px; font-weight: 200;" fill="rgb(33, 33, 33)" stroke="none" stroke-width="1px">8</text><text x="0" y="32.18181818181817" dx="0em" dy="0.3em" style="text-anchor: end; visibility: inherit; font-family: Roboto, sans-serif; font-size: 12px; font-weight: 200;" fill="rgb(33, 33, 33)" stroke="none" stroke-width="1px">9</text><text x="0" y="16.090909090909097" dx="0em" dy="0.3em" style="text-anchor: end; visibility: hidden; font-family: Roboto, sans-serif; font-size: 12px; font-weight: 200;" fill="rgb(33, 33, 33)" stroke="none" stroke-width="1px">10</text><text x="0" y="0" dx="0em" dy="0.3em" style="text-anchor: end; visibility: hidden; font-family: Roboto, sans-serif; font-size: 12px; font-weight: 200;" fill="rgb(33, 33, 33)" stroke="none" stroke-width="1px">11</text></g><line x1="30" y1="0" x2="30" y2="177" fill="rgb(0, 0, 0)" stroke="rgb(204, 204, 204)" stroke-width="1px"></line></g></g><g transform="translate(30, 0)" clip-path="url(#clip_0)"><clipPath id="clip_0"><rect width="300" height="177"></rect></clipPath><g><g><g><line x1="0" y1="0" x2="0" y2="177" fill="rgb(0, 0, 0)" stroke="rgb(66, 66, 66)" stroke-width="1px" opacity="0.25"></line><line x1="20" y1="0" x2="20" y2="177" fill="rgb(0, 0, 0)" stroke="rgb(66, 66, 66)" stroke-width="1px" opacity="0.25"></line><line x1="40" y1="0" x2="40" y2="177" fill="rgb(0, 0, 0)" stroke="rgb(66, 66, 66)" stroke-width="1px" opacity="0.25"></line><line x1="60" y1="0" x2="60" y2="177" fill="rgb(0, 0, 0)" stroke="rgb(66, 66, 66)" stroke-width="1px" opacity="0.25"></line><line x1="80" y1="0" x2="80" y2="177" fill="rgb(0, 0, 0)" stroke="rgb(66, 66, 66)" stroke-width="1px" opacity="0.25"></line><line x1="100" y1="0" x2="100" y2="177" fill="rgb(0, 0, 0)" stroke="rgb(66, 66, 66)" stroke-width="1px" opacity="0.25"></line><line x1="120" y1="0" x2="120" y2="177" fill="rgb(0, 0, 0)" stroke="rgb(66, 66, 66)" stroke-width="1px" opacity="0.25"></line><line x1="140" y1="0" x2="140" y2="177" fill="rgb(0, 0, 0)" stroke="rgb(66, 66, 66)" stroke-width="1px" opacity="0.25"></line><line x1="160" y1="0" x2="160" y2="177" fill="rgb(0, 0, 0)" stroke="rgb(66, 66, 66)" stroke-width="1px" opacity="0.25"></line><line x1="180" y1="0" x2="180" y2="177" fill="rgb(0, 0, 0)" stroke="rgb(66, 66, 66)" stroke-width="1px" opacity="0.25"></line><line x1="200" y1="0" x2="200" y2="177" fill="rgb(0, 0, 0)" stroke="rgb(66, 66, 66)" stroke-width="1px" opacity="0.25"></line><line x1="219.99999999999997" y1="0" x2="219.99999999999997" y2="177" fill="rgb(0, 0, 0)" stroke="rgb(66, 66, 66)" stroke-width="1px" opacity="0.25"></line><line x1="240" y1="0" x2="240" y2="177" fill="rgb(0, 0, 0)" stroke="rgb(66, 66, 66)" stroke-width="1px" opacity="0.25"></line><line x1="260" y1="0" x2="260" y2="177" fill="rgb(0, 0, 0)" stroke="rgb(66, 66, 66)" stroke-width="1px" opacity="0.25"></line><line x1="280" y1="0" x2="280" y2="177" fill="rgb(0, 0, 0)" stroke="rgb(66, 66, 66)" stroke-width="1px" opacity="0.25"></line><line x1="300" y1="0" x2="300" y2="177" fill="rgb(0, 0, 0)" stroke="rgb(66, 66, 66)" stroke-width="1px" opacity="0.25"></line></g><g><line x1="0" y1="177" x2="300" y2="177" fill="rgb(0, 0, 0)" stroke="rgb(66, 66, 66)" stroke-width="1px" opacity="0.25"></line><line x1="0" y1="160.9090909090909" x2="300" y2="160.9090909090909" fill="rgb(0, 0, 0)" stroke="rgb(66, 66, 66)" stroke-width="1px" opacity="0.25"></line><line x1="0" y1="144.8181818181818" x2="300" y2="144.8181818181818" fill="rgb(0, 0, 0)" stroke="rgb(66, 66, 66)" stroke-width="1px" opacity="0.25"></line><line x1="0" y1="128.72727272727272" x2="300" y2="128.72727272727272" fill="rgb(0, 0, 0)" stroke="rgb(66, 66, 66)" stroke-width="1px" opacity="0.25"></line><line x1="0" y1="112.63636363636364" x2="300" y2="112.63636363636364" fill="rgb(0, 0, 0)" stroke="rgb(66, 66, 66)" stroke-width="1px" opacity="0.25"></line><line x1="0" y1="96.54545454545453" x2="300" y2="96.54545454545453" fill="rgb(0, 0, 0)" stroke="rgb(66, 66, 66)" stroke-width="1px" opacity="0.25"></line><line x1="0" y1="80.45454545454547" x2="300" y2="80.45454545454547" fill="rgb(0, 0, 0)" stroke="rgb(66, 66, 66)" stroke-width="1px" opacity="0.25"></line><line x1="0" y1="64.36363636363636" x2="300" y2="64.36363636363636" fill="rgb(0, 0, 0)" stroke="rgb(66, 66, 66)" stroke-width="1px" opacity="0.25"></line><line x1="0" y1="48.272727272727266" x2="300" y2="48.272727272727266" fill="rgb(0, 0, 0)" stroke="rgb(66, 66, 66)" stroke-width="1px" opacity="0.25"></line><line x1="0" y1="32.18181818181817" x2="300" y2="32.18181818181817" fill="rgb(0, 0, 0)" stroke="rgb(66, 66, 66)" stroke-width="1px" opacity="0.25"></line><line x1="0" y1="16.090909090909097" x2="300" y2="16.090909090909097" fill="rgb(0, 0, 0)" stroke="rgb(66, 66, 66)" stroke-width="1px" opacity="0.25"></line><line x1="0" y1="0" x2="300" y2="0" fill="rgb(0, 0, 0)" stroke="rgb(66, 66, 66)" stroke-width="1px" opacity="0.25"></line></g></g></g><g><g><line x1="0" y1="177" x2="300" y2="177" fill="rgb(0, 0, 0)" stroke="rgb(153, 153, 153)" stroke-width="1.5px"></line></g></g><g><g><line x1="20" y1="0" x2="20" y2="177" fill="rgb(0, 0, 0)" stroke="rgb(153, 153, 153)" stroke-width="1.5px"></line></g></g><g><g><g><g><g><path stroke="rgb(51, 187, 238)" stroke-width="2px" d="M23,-2.268019475364527L24,6.446601293921977L25,14.757525382155954L26,17.909932575548666L27,19.91191549267783L28,21.060482206088835L29,26.185796135948053L30,28.340608030771854L31,28.934001148571486L32,19.80495626805027L33,22.302664870634874L34,27.396890635090536L35,29.409717395022728L36,25.930857744836388L37,30.582472555687623L38,23.099609361949152L39,21.363448701612583L40,29.506417465789312L41,22.916737812575256L42.00000000000001,28.365371018319145L43,21.34397622245638L44,22.888272771537554L45,26.26329115383887L46,31.9116270981149L47,30.616847359431016L48,29.988259447048865L49,34.073431272037986L50,35.96182877546137L51.00000000000001,30.732085010850984L52,25.895855496065195L53,28.610045746594402L54,25.714861704984216L54.99999999999999,34.57498657544657L56,35.44610175602986L57,36.4575772399336L58,36.56740427211356L59,36.28648042090078L60,43.45631862047627L61,45.16861994675256L62,45.55245072150654L63,47.36246401614934L64,47.301148394487825L65,44.500411485577416L66,41.76175918974816L67,40.649745670483085L68,44.52309048950585L69,49.08792623985914L70,47.20883076523991L71,48.64287396297699L72,41.64645715215751L73,46.05060837556751L74,47.32094669635601L75,37.604742603245974L76,42.99261376246046L77,23.73443686527808L78,27.004260196139054L78.99999999999999,40.74347783027151L80,46.26709419803435L81,52.66188001513873L82,45.427849959880845L83,45.22363310818771L84.00000000000001,48.39190511653622L85,52.5971475510672L86,48.222203733766825L87,56.046712976341375L88,60.90988030287013L89,60.74317598002268L90,65.69709544271016L91,62.16481676170354L92,63.36139250170812L93,66.53395138660643L94,70.64939039631699L95,63.35797924128781L96,66.49325310738948L96.99999999999999,60.67660364769512L98,62.824030851046246L99,66.91447521142959L100,69.268937493376L101,71.92023467869275L102.00000000000001,69.4385690725275L103,71.5990480986296L104,73.82026354584224L105,78.13395074500345L106,78.43930861072552L107,76.48791233685849L108,78.73913106760084L109,80.71077881274819L109.99999999999999,82.31951004488171L111,85.34536854306157L112,88.98059717919325L113,86.68049748054841L114,89.23366599236623L115.00000000000001,89.16340146052615L116,91.45128919482396L117,92.8838291209605L118,91.2791024365018L119,92.42891173456088L120,93.76827716998386L121,91.51758449987118L122,96.16735113723155L122.99999999999999,97.78186962389894L124,94.64888718697838L125,99.62060200862908L126,97.83106180078211L127,100.8333149670301L128,97.61251703782649L129,98.41072349845624L130,97.75271974778332L131,96.24488031534015L132,102.39531263680217L133,101.65258760034502L134,104.08721945029956L135,105.81459899288643L136,107.15966775419194L137,109.09853244320786L138,109.99261087127296L139,111.04521416501983L140,112.7624804912087L141,111.96571773309017L142,111.12401950774593L143,111.09980941778976L144,112.11385333017111L145,112.63273231728121L146,114.91697462450979L147,117.8705289096439L148,120.28757369463945L149,119.67624894878499L150,120.90642129390568L151,119.83352426353024L152,121.32622765198603L153,120.95954632448829L154,120.72716165776602L155.00000000000003,124.68111427503646L156,125.19093051988665L157,125.03482994928952L157.99999999999997,125.86602656057376L159,107.4094044877791L160,115.0162408989263L161,118.63896671307427L162,123.11837392528965L163,124.59290663658207L164,125.69025783823245L165,127.24631415554266L166,129.11979312653258L167,129.90751864867954L168.00000000000003,129.86469971164058L169,130.7242025771818L170,128.774953700519L170.99999999999997,129.69049793961773L172,130.58001373178377L173,130.67396684880242L174,133.26963923445098L175,134.933759150436L176,135.83191292799725L177,136.40319954485045L178,135.60312931398445L179,137.20020293248587L180,137.47890654858583L181.00000000000003,140.27815518219205L182,135.82985191607833L183,136.29239208956224L184,138.41125909026232L185,138.87489771051474L186,139.68284761210592L187,140.83227331191378L188,141.50356946615722L189,141.0084463240395L190,143.2619588365863L191,145.18550166345116L192,144.75805422919984L193,144.6399322726619L193.99999999999997,144.72902912432315L195,144.52813091380602L196,146.43522948396537L197,148.15299017210637L198,148.20649247550375L199,148.72983680503657L200,148.9362840626586L201,149.94379008308098L202,149.1823908669237L203,148.09565381418037L204.00000000000003,147.69477803158355L205,147.8573486741011L206,146.7646486187287L206.99999999999997,148.28615007797865L208,150.75094301738335L209,147.26522354376647L210,148.14835799048782L211,146.60038841919462L212,148.94994668074887L213,150.90151096130003L214,151.65356937248401L215,152.1273919432318L216,152.75504626149376L217.00000000000003,153.38823899668873L218,155.4397015508707L219,153.6794296221299L219.99999999999997,154.68939030731372L221,152.15770639583815L222,152.1655740731046L223,153.89066958532692L224,153.56366778464857L225,153.77985365537532L226,154.9781341618362L227,156.478525386831L228,156.71530217574153L229,157.60391776608378L230.00000000000003,158.48303333868407L231,157.3693590245724L232,156.93934705743206L232.99999999999997,157.64823307702494L234,158.54944406309272L235,159.3106771923148L236,157.13555854587594L237,156.88910897005826L238,157.60118986967012L239,158.99731134369662L240,159.70456617830402L241,159.86749060510598L242,159.9911508176478L243.00000000000003,161.17730043857702L244,160.6939600941602L245,160.098480452146L245.99999999999997,160.80963048664984L247,161.55815269854955L248,162.02416706217792L249,160.11062663001317L250,160.7782899710067L251,162.22848975547987L252,162.6161826874495L253,163.04959333169538L254,163.25115815156164L255,163.90368228005332L256,163.88370947851027L257,164.0454428007739L258,164.30982032603666L259,164.52669694277228L260,163.82060312138688L261,163.3155221724306L262,164.05482158879147L263,164.0602066614398L264,164.249091053692L265,164.94424120520398L266,165.0354309731209L267,165.16154830933567L268,165.29587112240804L269,165.43049320848195L270,165.87403199493605L271,165.55192814442518L272,165.88608559969427L273,166.17234676516262L274,166.29526476992723L275,166.26737458016228L276,166.61247661610744L277,166.89411459168807L278,166.53656645394025L279,166.89185770747758L280,167.87510815564852L281,167.74961430048472L282,167.7455538874677L283,167.6688427175685L284,168.64527564071017L285,168.6141288966267L286,167.7199167360969L287,167.829013959182L288,168.6286884263586L289,168.6624274055115L290,168.31413899999376L291,168.9621084789093" style="fill: none;" fill="none"></path></g></g></g></g><g opacity="0.2"><g><g><g><path stroke="rgb(51, 187, 238)" stroke-width="2px" d="M21.000000000000004,-36.58080144362017L22,14.246826605363333L23,0.9196857105601935L24,17.544663776050918L25,26.642404382879093L26,22.728353847156875L27,23.095908945257023L28,22.931927074085586L29,34.662431456825956L30,31.937610106034718L31,29.93029767816718L32,4.421786655079236L33,26.521082964810464L34,36.01289567080411L35,32.81712133234198L36,20.038366751237355L37,38.46416837518866L38,10.417820757085636L39,18.420630194924097L40,43.310088937932804L41,11.745527614246717L42.00000000000001,37.60253464091908L43,9.440221179615369L44,25.506439382379696L45,31.985273187810733L46,41.48782773451372L47,28.421667532487355L48,28.922544219277125L49,40.99948831038042L50,39.16344685987993L51.00000000000001,21.865492473949082L52,17.69643063978716L53,33.21173052354292L54,20.80631628903475L54.99999999999999,49.59659775820646L56,36.92300579764627L57,38.172450672496446L58,36.75360696965997L59,35.81019713661887L60,55.612189683047205L61,48.071686051108614L62,46.20320424166593L63,50.43119274486195L64,47.19719279896129L65,39.75199231234464L66,37.11859937147661L67,38.764418168501415L68,51.09002819928256L69,56.82722997665405L70,44.022978869351476L71,51.07417631149292L72,29.784607627175074L73,53.51748470826582L74,49.47470088438555L75,21.131717335094102L76,52.12730637463656L77,-8.916218844327044L78,32.54797684062611L78.99999999999999,64.03719182447955L80,55.631931651722304L81,63.50371365113691L82,33.16314671256326L83,44.87740022485907L84.00000000000001,53.7634498422796L85,59.726790384812794L86,40.80484615672719L87,69.31252514232288L88,69.15498070283368L89,60.46054250543769L90,74.09605862877585L91,56.17612864754416L92,65.39008829810403L93,71.91276415911588L94,77.62677890604193L95,50.995991056615665L96,71.80885219573975L96.99999999999999,50.814952676946476L98,66.46481713381681L99,73.84948734803632L100,73.26073473150079L101,76.41529109261252L102.00000000000001,65.2311090556058L103,75.26196267388083L104,77.58615172993053L105,85.44745276191018L106,78.95701776851307L107,73.17948037927802L108,82.55588735233654L109,84.0535454750061L109.99999999999999,85.04698159477927L111,90.47546287016436L112,95.14382847872646L113,82.7808675332503L114,93.56235330755061L115.00000000000001,89.0442737232555L116,95.33021476052024L117,95.31258279627019L118,88.55842026797207L119,94.37831887331875L120,96.03906115618618L121,87.70172010768543L122,104.05064821243286L122.99999999999999,100.51915298808704L124,89.33717302842572L125,108.04973576285623L126,94.79704349691218L127,105.92338839444248L128,92.15191893144086L129,99.7640169317072L130,96.6371284831654L131,93.68846251747824L132,112.82286500930786L133,100.39335836063732L134,108.21493760022251L135,108.74322899905117L136,109.4401212605563L137,112.38571812889792L138,111.5084473436529L139,112.82981651479548L140,115.67396437038074L141,110.61487197875977L142,109.69698936289006L143,111.0587632005865L144,113.8330814188177L145,113.51244898275897L146,118.78971966830166L147,122.87803738767451L148,124.38547442176126L149,118.63979809934443L150,122.99207737229086L151,118.01451555165379L152,123.85698353160511L153,120.33786827867681L154,120.33317255973816L155.00000000000003,131.3847158822146L156,126.05528205091304L157,124.77017426490784L157.99999999999997,127.27525208213113L159,76.11771908673373L160,127.91300667415966L161,124.78100050579418L162,130.7128406004472L163,127.09285562688655L164,127.55072658712214L165,129.88447971777484L166,132.2961227026853L167,131.24304251237348L168.00000000000003,129.7921037240462L169,132.18141902576792L170,125.47016247836025L170.99999999999997,131.24272792989558L172,132.08811463009226L173,130.83325663479894L174,137.67038837346163L175,137.75513766028664L176,137.35465882041237L177,137.37176903811368L178,134.24667601151899L179,139.90790995684537L180,137.9514256173914L181.00000000000003,145.02405111356214L182,128.28811942447317L183,137.0765909281644L184,142.0036238973791L185,139.66095887530935L186,141.05266024849632L187,142.7810300913724L188,142.64169690825722L189,140.1690057407726L190,147.0826040397991L191,148.4467103914781L192,144.03335224498403L193,144.43966620618647L193.99999999999997,144.88008551164106L195,144.18752451376483L196,149.6685583266345L197,151.06531220132655L198,148.29720123247668L199,149.61712409149516L200,149.2862984158776L201,151.65193371339276L202,147.89150109074333L203,146.2531804821708L204.00000000000003,147.01512609828603L205,148.13297383351758L206,144.91206550598145L206.99999999999997,150.86573071913287L208,154.92979681491852L209,141.3554727380926L210,149.64563984220678L211,143.97593327002093L212,152.93342955545947L213,154.21022776040164L214,152.92862258174202L215,152.9307191588662L216,153.81918255849317L217.00000000000003,154.4617652242834L218,158.91778766025197L219,150.69503327933225L219.99999999999997,156.4016956199299L221,147.8654444542798L222,152.17891307310626L223,156.81542720577934L224,153.00926311449572L225,154.14637902649966L226,157.0097202496095L227,159.02231536128303L228,157.11673775586215L229,159.11049244620582L230.00000000000003,159.97350151972338L231,155.48121578043157L232,156.21029711853373L232.99999999999997,158.85009104555303L234,160.07737320119685L235,160.6012853817506L236,153.44782369787043L237,156.47127397493884L238,158.8084644946185L239,161.3643205274235L240,160.90365860678932L241,160.14371557669207L242,160.20080654187635L243.00000000000003,163.18831960721448L244,159.8744962757284L245,159.0888936736367L245.99999999999997,162.01532690633428L247,162.82721057263288L248,162.814256104556L249,156.8663761399009L250,161.91025827689603L251,164.68718426877803L252,163.27348418127406L253,163.78440544821999L254,163.59289473295212L255,165.00998329574412L256,163.84984723546287L257,164.3196483525363L258,164.75805068557912L259,164.89439341696826L260,162.6234790953723L261,162.4591989463026L262,165.3082429712469L263,164.06933660940692L264,164.569329012524L265,166.1228111386299L266,165.19003572789106L267,165.37536988475105L268,165.5236044092612L269,165.6587338881059L270,166.62601554393768L271,165.0058275461197L272,166.4526220939376L273,166.65767903761432L274,166.50366214188662L275,166.2200890562751L276,167.1975687471303L277,167.37160862575877L278,165.93037298050794L279,167.49422481927004L280,169.54212845726445L281,167.5368497859348L282,167.73866979100487L283,167.53878523544833L284,170.30073738910934L285,168.5613221526146L286,166.20385353131726L287,168.01397933201358L288,169.98447074402463L289,168.71962907097557L290,167.7236446413127L291,170.0606874606826" style="fill: none;" fill="none"></path></g></g></g></g></g></g><g transform="translate(30, 177)" clip-path="url(#clip_1)"><clipPath id="clip_1"><rect width="300" height="23"></rect></clipPath><g><g><line x1="0" y1="0" x2="0" y2="5" style="visibility: inherit;" fill="rgb(0, 0, 0)" stroke="rgb(204, 204, 204)" stroke-width="1px"></line><line x1="20" y1="0" x2="20" y2="5" style="visibility: inherit;" fill="rgb(0, 0, 0)" stroke="rgb(204, 204, 204)" stroke-width="1px"></line><line x1="40" y1="0" x2="40" y2="5" style="visibility: inherit;" fill="rgb(0, 0, 0)" stroke="rgb(204, 204, 204)" stroke-width="1px"></line><line x1="60" y1="0" x2="60" y2="5" style="visibility: inherit;" fill="rgb(0, 0, 0)" stroke="rgb(204, 204, 204)" stroke-width="1px"></line><line x1="80" y1="0" x2="80" y2="5" style="visibility: inherit;" fill="rgb(0, 0, 0)" stroke="rgb(204, 204, 204)" stroke-width="1px"></line><line x1="100" y1="0" x2="100" y2="5" style="visibility: inherit;" fill="rgb(0, 0, 0)" stroke="rgb(204, 204, 204)" stroke-width="1px"></line><line x1="120" y1="0" x2="120" y2="5" style="visibility: inherit;" fill="rgb(0, 0, 0)" stroke="rgb(204, 204, 204)" stroke-width="1px"></line><line x1="140" y1="0" x2="140" y2="5" style="visibility: inherit;" fill="rgb(0, 0, 0)" stroke="rgb(204, 204, 204)" stroke-width="1px"></line><line x1="160" y1="0" x2="160" y2="5" style="visibility: inherit;" fill="rgb(0, 0, 0)" stroke="rgb(204, 204, 204)" stroke-width="1px"></line><line x1="180" y1="0" x2="180" y2="5" style="visibility: inherit;" fill="rgb(0, 0, 0)" stroke="rgb(204, 204, 204)" stroke-width="1px"></line><line x1="200" y1="0" x2="200" y2="5" style="visibility: inherit;" fill="rgb(0, 0, 0)" stroke="rgb(204, 204, 204)" stroke-width="1px"></line><line x1="219.99999999999997" y1="0" x2="219.99999999999997" y2="5" style="visibility: inherit;" fill="rgb(0, 0, 0)" stroke="rgb(204, 204, 204)" stroke-width="1px"></line><line x1="240" y1="0" x2="240" y2="5" style="visibility: inherit;" fill="rgb(0, 0, 0)" stroke="rgb(204, 204, 204)" stroke-width="1px"></line><line x1="260" y1="0" x2="260" y2="5" style="visibility: inherit;" fill="rgb(0, 0, 0)" stroke="rgb(204, 204, 204)" stroke-width="1px"></line><line x1="280" y1="0" x2="280" y2="5" style="visibility: inherit;" fill="rgb(0, 0, 0)" stroke="rgb(204, 204, 204)" stroke-width="1px"></line><line x1="300" y1="0" x2="300" y2="5" style="visibility: inherit;" fill="rgb(0, 0, 0)" stroke="rgb(204, 204, 204)" stroke-width="1px"></line></g><g transform="translate(0, 8)"><text x="0" y="0" dx="0em" dy="0.95em" style="text-anchor: middle; visibility: hidden; font-family: Roboto, sans-serif; font-size: 12px; font-weight: 200;" fill="rgb(33, 33, 33)" stroke="none" stroke-width="1px">-20</text><text x="20" y="0" dx="0em" dy="0.95em" style="text-anchor: middle; visibility: inherit; font-family: Roboto, sans-serif; font-size: 12px; font-weight: 200;" fill="rgb(33, 33, 33)" stroke="none" stroke-width="1px">0</text><text x="40" y="0" dx="0em" dy="0.95em" style="text-anchor: middle; visibility: hidden; font-family: Roboto, sans-serif; font-size: 12px; font-weight: 200;" fill="rgb(33, 33, 33)" stroke="none" stroke-width="1px">20</text><text x="60" y="0" dx="0em" dy="0.95em" style="text-anchor: middle; visibility: inherit; font-family: Roboto, sans-serif; font-size: 12px; font-weight: 200;" fill="rgb(33, 33, 33)" stroke="none" stroke-width="1px">40</text><text x="80" y="0" dx="0em" dy="0.95em" style="text-anchor: middle; visibility: hidden; font-family: Roboto, sans-serif; font-size: 12px; font-weight: 200;" fill="rgb(33, 33, 33)" stroke="none" stroke-width="1px">60</text><text x="100" y="0" dx="0em" dy="0.95em" style="text-anchor: middle; visibility: inherit; font-family: Roboto, sans-serif; font-size: 12px; font-weight: 200;" fill="rgb(33, 33, 33)" stroke="none" stroke-width="1px">80</text><text x="120" y="0" dx="0em" dy="0.95em" style="text-anchor: middle; visibility: hidden; font-family: Roboto, sans-serif; font-size: 12px; font-weight: 200;" fill="rgb(33, 33, 33)" stroke="none" stroke-width="1px">100</text><text x="140" y="0" dx="0em" dy="0.95em" style="text-anchor: middle; visibility: inherit; font-family: Roboto, sans-serif; font-size: 12px; font-weight: 200;" fill="rgb(33, 33, 33)" stroke="none" stroke-width="1px">120</text><text x="160" y="0" dx="0em" dy="0.95em" style="text-anchor: middle; visibility: hidden; font-family: Roboto, sans-serif; font-size: 12px; font-weight: 200;" fill="rgb(33, 33, 33)" stroke="none" stroke-width="1px">140</text><text x="180" y="0" dx="0em" dy="0.95em" style="text-anchor: middle; visibility: inherit; font-family: Roboto, sans-serif; font-size: 12px; font-weight: 200;" fill="rgb(33, 33, 33)" stroke="none" stroke-width="1px">160</text><text x="200" y="0" dx="0em" dy="0.95em" style="text-anchor: middle; visibility: hidden; font-family: Roboto, sans-serif; font-size: 12px; font-weight: 200;" fill="rgb(33, 33, 33)" stroke="none" stroke-width="1px">180</text><text x="219.99999999999997" y="0" dx="0em" dy="0.95em" style="text-anchor: middle; visibility: inherit; font-family: Roboto, sans-serif; font-size: 12px; font-weight: 200;" fill="rgb(33, 33, 33)" stroke="none" stroke-width="1px">200</text><text x="240" y="0" dx="0em" dy="0.95em" style="text-anchor: middle; visibility: hidden; font-family: Roboto, sans-serif; font-size: 12px; font-weight: 200;" fill="rgb(33, 33, 33)" stroke="none" stroke-width="1px">220</text><text x="260" y="0" dx="0em" dy="0.95em" style="text-anchor: middle; visibility: inherit; font-family: Roboto, sans-serif; font-size: 12px; font-weight: 200;" fill="rgb(33, 33, 33)" stroke="none" stroke-width="1px">240</text><text x="280" y="0" dx="0em" dy="0.95em" style="text-anchor: middle; visibility: hidden; font-family: Roboto, sans-serif; font-size: 12px; font-weight: 200;" fill="rgb(33, 33, 33)" stroke="none" stroke-width="1px">260</text><text x="300" y="0" dx="0em" dy="0.95em" style="text-anchor: middle; visibility: hidden; font-family: Roboto, sans-serif; font-size: 12px; font-weight: 200;" fill="rgb(33, 33, 33)" stroke="none" stroke-width="1px">280</text></g><line x1="0" y1="0" x2="300" y2="0" fill="rgb(0, 0, 0)" stroke="rgb(204, 204, 204)" stroke-width="1px"></line></g></g></g></g></svg>