<svg viewBox="0 0 330 200" xmlns="http://www.w3.org/2000/svg"><g><g><g><g><g><line x1="51.5625" y1="177" x2="46.5625" y2="177" style="visibility: inherit;" fill="rgb(0, 0, 0)" stroke="rgb(204, 204, 204)" stroke-width="1px"></line><line x1="51.5625" y1="163.3846153846154" x2="46.5625" y2="163.3846153846154" style="visibility: inherit;" fill="rgb(0, 0, 0)" stroke="rgb(204, 204, 204)" stroke-width="1px"></line><line x1="51.5625" y1="149.76923076923077" x2="46.5625" y2="149.76923076923077" style="visibility: inherit;" fill="rgb(0, 0, 0)" stroke="rgb(204, 204, 204)" stroke-width="1px"></line><line x1="51.5625" y1="136.15384615384613" x2="46.5625" y2="136.15384615384613" style="visibility: inherit;" fill="rgb(0, 0, 0)" stroke="rgb(204, 204, 204)" stroke-width="1px"></line><line x1="51.5625" y1="122.53846153846153" x2="46.5625" y2="122.53846153846153" style="visibility: inherit;" fill="rgb(0, 0, 0)" stroke="rgb(204, 204, 204)" stroke-width="1px"></line><line x1="51.5625" y1="108.92307692307693" x2="46.5625" y2="108.92307692307693" style="visibility: inherit;" fill="rgb(0, 0, 0)" stroke="rgb(204, 204, 204)" stroke-width="1px"></line><line x1="51.5625" y1="95.3076923076923" x2="46.5625" y2="95.3076923076923" style="visibility: inherit;" fill="rgb(0, 0, 0)" stroke="rgb(204, 204, 204)" stroke-width="1px"></line><line x1="51.5625" y1="81.6923076923077" x2="46.5625" y2="81.6923076923077" style="visibility: inherit;" fill="rgb(0, 0, 0)" stroke="rgb(204, 204, 204)" stroke-width="1px"></line><line x1="51.5625" y1="68.07692307692307" x2="46.5625" y2="68.07692307692307" style="visibility: inherit;" fill="rgb(0, 0, 0)" stroke="rgb(204, 204, 204)" stroke-width="1px"></line><line x1="51.5625" y1="54.461538461538446" x2="46.5625" y2="54.461538461538446" style="visibility: inherit;" fill="rgb(0, 0, 0)" stroke="rgb(204, 204, 204)" stroke-width="1px"></line><line x1="51.5625" y1="40.84615384615386" x2="46.5625" y2="40.84615384615386" style="visibility: inherit;" fill="rgb(0, 0, 0)" stroke="rgb(204, 204, 204)" stroke-width="1px"></line><line x1="51.5625" y1="27.230769230769234" x2="46.5625" y2="27.230769230769234" style="visibility: inherit;" fill="rgb(0, 0, 0)" stroke="rgb(204, 204, 204)" stroke-width="1px"></line><line x1="51.5625" y1="13.615384615384626" x2="46.5625" y2="13.615384615384626" style="visibility: inherit;" fill="rgb(0, 0, 0)" stroke="rgb(204, 204, 204)" stroke-width="1px"></line><line x1="51.5625" y1="0" x2="46.5625" y2="0" style="visibility: inherit;" fill="rgb(0, 0, 0)" stroke="rgb(204, 204, 204)" stroke-width="1px"></line></g><g transform="translate(41.5625, 0)"><text x="0" y="177" dx="0em" dy="0.3em" style="text-anchor: end; visibility: hidden; font-family: Roboto, sans-serif; font-size: 12px; font-weight: 200;" fill="rgb(33, 33, 33)" stroke="none" stroke-width="1px">0.35</text><text x="0" y="163.3846153846154" dx="0em" dy="0.3em" style="text-anchor: end; visibility: inherit; font-family: Roboto, sans-serif; font-size: 12px; font-weight: 200;" fill="rgb(33, 33, 33)" stroke="none" stroke-width="1px">0.4</text><text x="0" y="149.76923076923077" dx="0em" dy="0.3em" style="text-anchor: end; visibility: hidden; font-family: Roboto, sans-serif; font-size: 12px; font-weight: 200;" fill="rgb(33, 33, 33)" stroke="none" stroke-width="1px">0.45</text><text x="0" y="136.15384615384613" dx="0em" dy="0.3em" style="text-anchor: end; visibility: inherit; font-family: Roboto, sans-serif; font-size: 12px; font-weight: 200;" fill="rgb(33, 33, 33)" stroke="none" stroke-width="1px">0.5</text><text x="0" y="122.53846153846153" dx="0em" dy="0.3em" style="text-anchor: end; visibility: hidden; font-family: Roboto, sans-serif; font-size: 12px; font-weight: 200;" fill="rgb(33, 33, 33)" stroke="none" stroke-width="1px">0.55</text><text x="0" y="108.92307692307693" dx="0em" dy="0.3em" style="text-anchor: end; visibility: inherit; font-family: Roboto, sans-serif; font-size: 12px; font-weight: 200;" fill="rgb(33, 33, 33)" stroke="none" stroke-width="1px">0.6</text><text x="0" y="95.3076923076923" dx="0em" dy="0.3em" style="text-anchor: end; visibility: hidden; font-family: Roboto, sans-serif; font-size: 12px; font-weight: 200;" fill="rgb(33, 33, 33)" stroke="none" stroke-width="1px">0.65</text><text x="0" y="81.6923076923077" dx="0em" dy="0.3em" style="text-anchor: end; visibility: inherit; font-family: Roboto, sans-serif; font-size: 12px; font-weight: 200;" fill="rgb(33, 33, 33)" stroke="none" stroke-width="1px">0.7</text><text x="0" y="68.07692307692307" dx="0em" dy="0.3em" style="text-anchor: end; visibility: hidden; font-family: Roboto, sans-serif; font-size: 12px; font-weight: 200;" fill="rgb(33, 33, 33)" stroke="none" stroke-width="1px">0.75</text><text x="0" y="54.461538461538446" dx="0em" dy="0.3em" style="text-anchor: end; visibility: inherit; font-family: Roboto, sans-serif; font-size: 12px; font-weight: 200;" fill="rgb(33, 33, 33)" stroke="none" stroke-width="1px">0.8</text><text x="0" y="40.84615384615386" dx="0em" dy="0.3em" style="text-anchor: end; visibility: hidden; font-family: Roboto, sans-serif; font-size: 12px; font-weight: 200;" fill="rgb(33, 33, 33)" stroke="none" stroke-width="1px">0.85</text><text x="0" y="27.230769230769234" dx="0em" dy="0.3em" style="text-anchor: end; visibility: inherit; font-family: Roboto, sans-serif; font-size: 12px; font-weight: 200;" fill="rgb(33, 33, 33)" stroke="none" stroke-width="1px">0.9</text><text x="0" y="13.615384615384626" dx="0em" dy="0.3em" style="text-anchor: end; visibility: hidden; font-family: Roboto, sans-serif; font-size: 12px; font-weight: 200;" fill="rgb(33, 33, 33)" stroke="none" stroke-width="1px">0.95</text><text x="0" y="0" dx="0em" dy="0.3em" style="text-anchor: end; visibility: hidden; font-family: Roboto, sans-serif; font-size: 12px; font-weight: 200;" fill="rgb(33, 33, 33)" stroke="none" stroke-width="1px">1</text></g><line x1="51.5625" y1="0" x2="51.5625" y2="177" fill="rgb(0, 0, 0)" stroke="rgb(204, 204, 204)" stroke-width="1px"></line></g></g><g transform="translate(51, 0)" clip-path="url(#clip_0)"><clipPath id="clip_0"><rect width="278" height="177"></rect></clipPath><g><g><g><line x1="0" y1="0" x2="0" y2="177" fill="rgb(0, 0, 0)" stroke="rgb(66, 66, 66)" stroke-width="1px" opacity="0.25"></line><line x1="18.5625" y1="0" x2="18.5625" y2="177" fill="rgb(0, 0, 0)" stroke="rgb(66, 66, 66)" stroke-width="1px" opacity="0.25"></line><line x1="37.125" y1="0" x2="37.125" y2="177" fill="rgb(0, 0, 0)" stroke="rgb(66, 66, 66)" stroke-width="1px" opacity="0.25"></line><line x1="55.6875" y1="0" x2="55.6875" y2="177" fill="rgb(0, 0, 0)" stroke="rgb(66, 66, 66)" stroke-width="1px" opacity="0.25"></line><line x1="74.25" y1="0" x2="74.25" y2="177" fill="rgb(0, 0, 0)" stroke="rgb(66, 66, 66)" stroke-width="1px" opacity="0.25"></line><line x1="92.8125" y1="0" x2="92.8125" y2="177" fill="rgb(0, 0, 0)" stroke="rgb(66, 66, 66)" stroke-width="1px" opacity="0.25"></line><line x1="111.375" y1="0" x2="111.375" y2="177" fill="rgb(0, 0, 0)" stroke="rgb(66, 66, 66)" stroke-width="1px" opacity="0.25"></line><line x1="129.9375" y1="0" x2="129.9375" y2="177" fill="rgb(0, 0, 0)" stroke="rgb(66, 66, 66)" stroke-width="1px" opacity="0.25"></line><line x1="148.5" y1="0" x2="148.5" y2="177" fill="rgb(0, 0, 0)" stroke="rgb(66, 66, 66)" stroke-width="1px" opacity="0.25"></line><line x1="167.0625" y1="0" x2="167.0625" y2="177" fill="rgb(0, 0, 0)" stroke="rgb(66, 66, 66)" stroke-width="1px" opacity="0.25"></line><line x1="185.625" y1="0" x2="185.625" y2="177" fill="rgb(0, 0, 0)" stroke="rgb(66, 66, 66)" stroke-width="1px" opacity="0.25"></line><line x1="204.18749999999997" y1="0" x2="204.18749999999997" y2="177" fill="rgb(0, 0, 0)" stroke="rgb(66, 66, 66)" stroke-width="1px" opacity="0.25"></line><line x1="222.75" y1="0" x2="222.75" y2="177" fill="rgb(0, 0, 0)" stroke="rgb(66, 66, 66)" stroke-width="1px" opacity="0.25"></line><line x1="241.3125" y1="0" x2="241.3125" y2="177" fill="rgb(0, 0, 0)" stroke="rgb(66, 66, 66)" stroke-width="1px" opacity="0.25"></line><line x1="259.875" y1="0" x2="259.875" y2="177" fill="rgb(0, 0, 0)" stroke="rgb(66, 66, 66)" stroke-width="1px" opacity="0.25"></line><line x1="278.4375" y1="0" x2="278.4375" y2="177" fill="rgb(0, 0, 0)" stroke="rgb(66, 66, 66)" stroke-width="1px" opacity="0.25"></line></g><g><line x1="0" y1="177" x2="278.4375" y2="177" fill="rgb(0, 0, 0)" stroke="rgb(66, 66, 66)" stroke-width="1px" opacity="0.25"></line><line x1="0" y1="163.3846153846154" x2="278.4375" y2="163.3846153846154" fill="rgb(0, 0, 0)" stroke="rgb(66, 66, 66)" stroke-width="1px" opacity="0.25"></line><line x1="0" y1="149.76923076923077" x2="278.4375" y2="149.76923076923077" fill="rgb(0, 0, 0)" stroke="rgb(66, 66, 66)" stroke-width="1px" opacity="0.25"></line><line x1="0" y1="136.15384615384613" x2="278.4375" y2="136.15384615384613" fill="rgb(0, 0, 0)" stroke="rgb(66, 66, 66)" stroke-width="1px" opacity="0.25"></line><line x1="0" y1="122.53846153846153" x2="278.4375" y2="122.53846153846153" fill="rgb(0, 0, 0)" stroke="rgb(66, 66, 66)" stroke-width="1px" opacity="0.25"></line><line x1="0" y1="108.92307692307693" x2="278.4375" y2="108.92307692307693" fill="rgb(0, 0, 0)" stroke="rgb(66, 66, 66)" stroke-width="1px" opacity="0.25"></line><line x1="0" y1="95.3076923076923" x2="278.4375" y2="95.3076923076923" fill="rgb(0, 0, 0)" stroke="rgb(66, 66, 66)" stroke-width="1px" opacity="0.25"></line><line x1="0" y1="81.6923076923077" x2="278.4375" y2="81.6923076923077" fill="rgb(0, 0, 0)" stroke="rgb(66, 66, 66)" stroke-width="1px" opacity="0.25"></line><line x1="0" y1="68.07692307692307" x2="278.4375" y2="68.07692307692307" fill="rgb(0, 0, 0)" stroke="rgb(66, 66, 66)" stroke-width="1px" opacity="0.25"></line><line x1="0" y1="54.461538461538446" x2="278.4375" y2="54.461538461538446" fill="rgb(0, 0, 0)" stroke="rgb(66, 66, 66)" stroke-width="1px" opacity="0.25"></line><line x1="0" y1="40.84615384615386" x2="278.4375" y2="40.84615384615386" fill="rgb(0, 0, 0)" stroke="rgb(66, 66, 66)" stroke-width="1px" opacity="0.25"></line><line x1="0" y1="27.230769230769234" x2="278.4375" y2="27.230769230769234" fill="rgb(0, 0, 0)" stroke="rgb(66, 66, 66)" stroke-width="1px" opacity="0.25"></line><line x1="0" y1="13.615384615384626" x2="278.4375" y2="13.615384615384626" fill="rgb(0, 0, 0)" stroke="rgb(66, 66, 66)" stroke-width="1px" opacity="0.25"></line><line x1="0" y1="0" x2="278.4375" y2="0" fill="rgb(0, 0, 0)" stroke="rgb(66, 66, 66)" stroke-width="1px" opacity="0.25"></line></g></g></g><g><g><line x1="0" y1="272.30769230769226" x2="278.4375" y2="272.30769230769226" fill="rgb(0, 0, 0)" stroke="rgb(153, 153, 153)" stroke-width="1.5px"></line></g></g><g><g><line x1="18.5625" y1="0" x2="18.5625" y2="177" fill="rgb(0, 0, 0)" stroke="rgb(153, 153, 153)" stroke-width="1.5px"></line></g></g><g><g><g><g><g><path stroke="rgb(51, 187, 238)" stroke-width="2px" d="M19.490625,-6.343517303466797L20.41875,4.9166747013626555L21.346874999999997,9.759663209597507L22.275000000000002,12.158403285953726L23.203125,13.559882773054408L24.13125,14.197105650892144L25.059375,15.044445839924554L25.9875,15.47691118125843L26.915625,16.160197648231158L27.84375,16.31015736294799L28.771875,16.61838650895108L29.700000000000003,17.302438691050952L30.628125,17.329228553590983L31.55625,17.460763773264706L32.484375,17.49647360534288L33.4125,17.58143242393323L34.340625,17.728596706454113L35.268750000000004,17.847167128706012L36.196875,17.60928215842934L37.125,17.584646562487656L38.053124999999994,18.61576696470023L38.98125,19.071647752615718L39.909375000000004,19.301113480742586L40.8375,19.075758955376763L41.765625,19.439069641831225L42.693749999999994,19.27187644409802L43.621875,19.312502680319305L44.550000000000004,19.624427715834162L45.478125,19.69045840781208L46.40625,20.153734822253632L47.334375,20.387863695020307L48.2625,20.988113827085755L49.190625,21.32401941899405L50.11875,21.248933386028366L51.04687499999999,21.99312691850316L51.975,22.575774046242667L52.903125,22.739197722662908L53.83125,23.09191286625743L54.759375,23.27732177194559L55.6875,23.633454228383396L56.615625,23.90953055929991L57.54375,24.73923292320271L58.471875,25.307976017645874L59.400000000000006,25.24396661830799L60.328125,25.557764390395633L61.25625,25.900932824776874L62.184374999999996,26.486459535363977L63.1125,27.0682345925655L64.040625,27.57996073931232L64.96875,28.06324020284885L65.896875,28.664010965282245L66.825,29.338677733093213L67.753125,29.64328499210698L68.68125,30.475313205356436L69.609375,31.134037192473606L70.53750000000001,31.730607108925994L71.465625,32.17353870686728L72.39375,32.53024319730052L73.32187499999999,33.25966232811966L74.25,33.99442010835734L75.17812500000001,34.7741935216736L76.10624999999999,35.597901871262145L77.034375,35.76716344747455L77.9625,36.81604989271861L78.890625,38.03292049054207L79.81875000000001,38.621302254618094L80.74687499999999,39.42355458346057L81.675,40.266604857518466L82.603125,40.88540141169232L83.53125,41.82653675980139L84.45937500000001,42.39247337423367L85.38749999999999,43.45135816429989L86.315625,44.27880643614065L87.24375,45.41887283515659L88.171875,46.214075115466514L89.10000000000001,46.67780843541867L90.02812499999999,47.292316171446764L90.95625,48.15265333761323L91.884375,48.43867505784812L92.8125,49.07677441701487L93.740625,50.03525993769575L94.66875,50.612109810675705L95.596875,50.8916451788479L96.525,52.21294915746173L97.453125,52.98677765597798L98.38125,53.53078748557656L99.309375,54.12810002567787L100.2375,54.87869810860842L101.165625,55.293546577111876L102.09374999999999,56.215739300794745L103.021875,56.86869635271695L103.95,57.58139700485715L104.878125,58.612838236718616L105.80625,59.65211734820408L106.73437500000001,59.524818756039224L107.6625,60.512123658272124L108.590625,61.04983523984446L109.51875,62.033688758581874L110.446875,63.631396428408856L111.375,64.77693548032208L112.303125,65.33606980508641L113.23125,66.52604817431227L114.159375,67.3995053930816L115.0875,67.84998667868953L116.015625,68.67483430640812L116.94375,68.8760587163242L117.871875,69.69512211328711L118.80000000000001,70.97569804020027L119.72812499999999,71.23968539915744L120.65625,72.96254106791665L121.584375,73.69216362128444L122.5125,75.48922238440696L123.44062500000001,76.59354084851073L124.36874999999999,77.73593746473645L125.296875,78.92831673654725L126.225,79.63666567592213L127.153125,80.62371807948814L128.08125,81.71838584153593L129.009375,83.21397453668156L129.9375,83.64964781959178L130.865625,83.77789667871897L131.79375,84.43130633794075L132.721875,84.80064941262516L133.65,86.08993052847173L134.578125,87.25494803424901L135.50625,87.76906260246193L136.434375,88.85262302948803L137.3625,89.5810428472848L138.290625,90.47137309028965L139.21875,91.6926498717619L140.146875,92.86695564701836L141.07500000000002,93.67848578675232L142.003125,94.2357985538423L142.93125,94.66444879967086L143.85937500000003,96.28782210604497L144.7875,96.73618278892356L145.715625,97.88772474353483L146.64374999999998,98.43501479103045L147.571875,98.90422105543146L148.5,99.81375054516457L149.428125,99.95368439496795L150.35625000000002,100.63006401639086L151.284375,101.58138761589929L152.21249999999998,102.1329098507927L153.140625,103.18793068273226L154.06875,104.04418873104287L154.996875,105.09823844460112L155.925,105.86016504105527L156.853125,106.40189728248804L157.78125,106.49792789989998L158.709375,106.92280223699636L159.63750000000002,108.17932941803366L160.565625,108.91241331087426L161.49374999999998,109.72237405514953L162.421875,111.08574234531356L163.35,111.71941084867447L164.278125,110.9568859805612L165.20625,111.70604329411162L166.134375,112.64066364970515L167.0625,112.65059603993943L167.99062500000002,114.62498252131364L168.91875000000002,114.74742688396478L169.84687499999998,116.49059875113599L170.77499999999998,117.48812452896073L171.703125,117.75630587269947L172.63125,119.0600567751101L173.559375,119.14076254040332L174.4875,119.56640894035155L175.415625,119.73521119929299L176.34375,120.80984023187382L177.27187500000002,121.74091225065095L178.20000000000002,122.90970907212706L179.12812499999998,123.07734985423603L180.05624999999998,123.10990409908493L180.984375,123.5885724162339L181.9125,124.46759860115459L182.840625,126.0254073975392L183.76875,127.0989897488598L184.696875,127.50873129572213L185.625,128.06324068694846L186.55312500000002,128.40161569919525L187.48125,129.1976061035638L188.40937499999998,129.3181928861015L189.3375,129.95636568268597L190.265625,129.86314178186376L191.19375,130.35641626378035L192.121875,130.21890561060135L193.05,131.1112752162929L193.978125,131.55802626858116L194.90625,132.62525256361894L195.83437500000002,132.61966476313773L196.7625,132.5380434996781L197.69062499999998,132.65853088031363L198.61875,133.0571308988836L199.546875,133.97431205578957L200.475,134.30129735443086L201.40312500000002,135.15781274943595L202.33125,135.97772278807824L203.259375,136.3007962573636L204.18749999999997,136.7955887411907L205.115625,137.30987455337316L206.04375,136.77945734722104L206.97187499999998,137.37782842189515L207.9,138.1134692091922L208.828125,137.67021526495859L209.75625,138.65143720657488L210.68437500000002,139.04994436493055L211.6125,139.9618584045305L212.540625,140.01998592345396L213.46875000000003,140.92607121793748L214.396875,140.85036593423922L215.325,141.64623588715932L216.25312499999998,142.92264055423203L217.18125,143.84004851951252L218.109375,144.35461771741083L219.0375,145.01671831291887L219.96562500000002,145.75079035704036L220.89375,145.82201608533416L221.82187499999998,145.83037116488214L222.75,145.99182754057566L223.678125,146.96290668596754L224.60625,146.6625407823723L225.534375,148.38968664112707L226.4625,149.89780416906004L227.390625,150.0966421361582L228.31875,150.14361070213403L229.24687500000002,150.14191372400128L230.175,151.21863945792288L231.10312499999998,151.24505830239985L232.03125,151.3606020713879L232.959375,152.2767706892617L233.8875,152.93114126523324L234.815625,153.2281909278276L235.74375,154.24811234713127L236.671875,155.30097430781495L237.60000000000002,154.84377974695178L238.52812500000002,154.46248374977412L239.45624999999998,155.20151237409053L240.38437499999998,156.11934737850729L241.3125,156.19681928736637L242.240625,156.85994184583552L243.16875,157.05836449219169L244.096875,157.13110331932108L245.025,157.36430028918886L245.953125,157.29750543773199L246.88125000000002,157.21383686438554L247.80937500000002,157.43716548951747L248.73749999999998,158.40030197060872L249.66562499999998,159.41224050773954L250.59375,158.3773897871139L251.521875,158.5491314597237L252.45,158.68319148050955L253.378125,159.25694713685445L254.30625,159.31064308079698L255.234375,159.33400342388828L256.1625,159.76523717586562L257.090625,160.66129033930474L258.01875,161.91219532481648L258.94687500000003,162.25123425839885L259.875,162.62069378909402L260.803125,163.7121925133334L261.73125,163.8572473009948L262.659375,163.6256672846556L263.5875,165.5002144905377L264.515625,164.97670441642504L265.44375,165.5065282700543L266.371875,165.36597567378234L267.3,166.15750257064246L268.22812500000003,165.1089767636268L269.15625,165.1367415767225L270.08437499999997,166.6901904744658" style="fill: none;" fill="none"></path></g></g></g></g><g opacity="0.2"><g><g><g><path stroke="rgb(51, 187, 238)" stroke-width="2px" d="M19.490625,-6.343517303466797L20.41875,11.999335472400366L21.346874999999997,14.721987797663763L22.275000000000002,15.21319682781513L23.203125,15.564041871290936L24.13125,15.171094124133765L25.059375,16.392072530893177L25.9875,16.18155901248638L26.915625,17.290268953029933L27.84375,16.56048334561862L28.771875,17.1358977831327L29.700000000000003,18.455121242083045L30.628125,17.374474360392647L31.55625,17.683232930990368L32.484375,17.55692481994629L33.4125,17.725335634671715L34.340625,17.977951856759876L35.268750000000004,18.04811761929439L36.196875,17.2060635456672L37.125,17.542885175118073L38.053124999999994,20.3637825525724L38.98125,19.844510463567882L39.909375000000004,19.690139293670654L40.8375,18.693697819342987L41.765625,20.055023981974678L42.693749999999994,18.988416745112495L43.621875,19.38138072307293L44.550000000000004,20.153269034165607L45.478125,19.802407759886517L46.40625,20.939180759283214L47.334375,20.784809589385986L48.2625,22.005787996145397L49.190625,21.893519529929534L50.11875,21.12163121883686L51.04687499999999,23.254845692561226L51.975,23.563604263158947L52.903125,23.01626911530128L53.83125,23.68991237420303L54.759375,23.591667322012096L55.6875,24.237247522060695L56.615625,24.377595277932972L57.54375,26.145925063353314L58.471875,26.272233174397392L59.400000000000006,25.13544394419743L60.328125,26.08978271484375L61.25625,26.482746692804188L62.184374999999996,27.479171936328587L63.1125,28.054586373842668L64.040625,28.447550351803127L64.96875,28.882600802641644L65.896875,29.682568403390736L66.825,30.48251977333656L67.753125,30.15972155791062L68.68125,31.885948639649616L69.609375,32.250849558756904L70.53750000000001,32.742042358105L71.465625,32.924492817658646L72.39375,33.135006336065445L73.32187499999999,34.49633249869713L74.25,35.24014152013339L75.17812500000001,36.09623523858876L76.10624999999999,36.99443166072552L77.034375,36.05413253490742L77.9625,38.59435063142043L78.890625,40.0960245499244L79.81875000000001,39.61885516460125L80.74687499999999,40.783707453654365L81.675,41.695927289816055L82.603125,41.93452009787926L83.53125,43.42215437155503L84.45937500000001,43.35197237821725L85.38749999999999,45.24661027468167L86.315625,45.68167695632347L87.24375,47.35176168955289L88.171875,47.56227520795968L89.10000000000001,47.46403015576877L90.02812499999999,48.33416351905235L90.95625,49.611284274321335L91.884375,48.923601370591385L92.8125,50.158619422179L93.740625,51.66029334068298L94.66875,51.5901113473452L95.596875,51.365574414913475L96.525,54.45311142848088L97.453125,54.29874025858365L98.38125,54.45311142848088L99.309375,55.14079433221084L100.2375,56.15127545136672L101.165625,55.99688805066623L102.09374999999999,57.779241250111504L103.021875,57.97573135449336L103.95,58.78972236926739L104.878125,60.36156205030587L105.80625,61.41412964233986L106.73437500000001,59.308994458271904L107.6625,62.18601795343251L108.590625,61.961481021000786L109.51875,63.70173151676472L110.446875,66.34017843466538L111.375,66.71910276779762L112.303125,66.28403608615582L113.23125,68.54355867092426L114.159375,68.88038030037514L115.0875,68.61374066426204L116.015625,70.0732956482814L116.94375,69.21721816062927L117.871875,71.08377676743729L118.80000000000001,73.14680924782387L119.72812499999999,71.6872542638045L120.65625,75.88350121791547L121.584375,74.9291786780724L122.5125,78.53598778064435L123.44062500000001,78.46582201810983L124.36874999999999,79.6727770108443L125.296875,80.94989776611328L126.225,80.83761306909413L127.153125,82.29718428391678L128.08125,83.57430503918575L129.009375,85.74962221659146L129.9375,84.38829605395978L130.865625,83.99533207599933L131.79375,85.53910869818466L132.721875,85.42684023196881L133.65,88.27580066827626L134.578125,89.23013943892258L135.50625,88.64070158738357L136.434375,90.68971065374521L137.3625,90.81601876478928L138.290625,91.98085482303912L139.21875,93.76322425328767L140.146875,94.857894549003L141.07500000000002,95.0543684225816L142.003125,95.18067653362567L142.93125,95.39119005203247L143.85937500000003,99.04011808908902L144.7875,97.49634146690369L145.715625,99.84006945903485L146.64374999999998,99.3629000737117L147.571875,99.69972170316255L148.5,101.35578302236704L149.428125,100.19093073331392L150.35625000000002,101.77681005918062L151.284375,103.19427857032188L152.21249999999998,103.0679704592778L153.140625,104.97663176976717L154.06875,105.49590385877168L154.996875,106.88529308025652L155.925,107.1519489471729L156.853125,107.32035976189835L157.78125,106.66073991702153L158.709375,107.643141746521L159.63750000000002,110.30966795407808L160.565625,110.15529678418085L161.49374999999998,111.09559590999895L162.421875,113.39722119844876L163.35,112.79374370208153L164.278125,109.66408775402948L165.20625,112.97617793083191L166.134375,114.22523562724774L167.0625,112.66743559103745L167.99062500000002,117.97239248569196L168.91875000000002,114.95502123465904L169.84687499999998,119.44600334534279L170.77499999999998,119.17934747842642L171.703125,118.21098529375516L172.63125,121.27045924846941L173.559375,119.27759253061734L174.4875,120.28805741896996L175.415625,120.0214015520536L176.34375,122.63178541110112L177.27187500000002,123.31946831483108L178.20000000000002,124.89130799586957L179.12812499999998,123.36157101851242L180.05624999999998,123.16509714493385L180.984375,124.40011519652145L181.9125,125.95791523273175L182.840625,128.66654414397019L183.76875,128.91916036605835L184.696875,128.20341440347525L185.625,129.00336577342105L186.55312500000002,128.9753027145679L187.48125,130.5471423956064L188.40937499999998,129.52263786242557L189.3375,131.0383351949545L190.265625,129.70508832197922L191.19375,131.192722595655L192.121875,129.98576760292053L193.05,132.6242145208212L193.978125,132.31545595022348L194.90625,134.4346470099229L195.83437500000002,132.61019110679626L196.7625,132.3996613575862L197.69062499999998,132.86280732888443L198.61875,133.73292446136475L199.546875,135.52931730563824L200.475,134.85567404673648L201.40312500000002,136.60996418732864L202.33125,137.36781285359308L203.259375,136.84854076458856L204.18749999999997,137.63446872050946L205.115625,138.18180386836713L206.04375,135.8801785799173L206.97187499999998,138.39231738677393L207.9,139.3606876868468L208.828125,136.91871464252472L209.75625,140.3150183420915L210.68437500000002,139.72558049055246L211.6125,141.50793368999774L212.540625,140.11853635311127L213.46875000000003,142.46226434524243L214.396875,140.7220138494785L215.325,142.99556796367352L216.25312499999998,145.08667973371652L217.18125,145.39543830431424L218.109375,145.2270274895888L219.0375,146.13925544115213L219.96562500000002,146.9953491596075L220.89375,145.9427734521719L221.82187499999998,145.84453651538263L222.75,146.2655635521962L223.678125,148.60929154432736L224.60625,146.15329508598035L225.534375,151.3179204555658L226.4625,152.4546934549625L227.390625,150.43375556285565L228.31875,150.22324204444885L229.24687500000002,150.13903663708612L230.175,153.04413942190317L231.10312499999998,151.28984928131104L232.03125,151.55649703282577L232.959375,153.83005926242242L233.8875,154.0405727808292L234.815625,153.73181421023148L235.74375,155.97730526557336L236.671875,157.08601520611688L237.60000000000002,154.06864395508399L238.52812500000002,153.81602773299585L239.45624999999998,156.45447465089651L240.38437499999998,157.67546117305756L241.3125,156.32816653985242L242.240625,157.98421162825363L243.16875,157.3947737767146L244.096875,157.25442602084232L245.025,157.75966658042026L245.953125,157.1842602583078L246.88125000000002,157.0719836766903L247.80937500000002,157.8158008135282L248.73749999999998,160.0332206946153L249.66562499999998,161.12789910573224L250.59375,156.62288546562195L251.521875,158.84030534670902L252.45,158.91047922464517L253.378125,160.22970268359552L254.30625,159.4016801393949L255.234375,159.3736089651401L256.1625,160.49635855051187L257.090625,162.18047481316785L258.01875,164.0330018905493L258.94687500000003,162.82604689781482L259.875,163.24708205003003L260.803125,165.56273886790643L261.73125,164.1031757684854L262.659375,163.23304240520184L263.5875,168.67835517113025L264.515625,164.08913612365723L265.44375,166.40480105693524L266.371875,165.12768030166626L267.3,167.49947135265057L268.22812500000003,163.33128745739276L269.15625,165.18381453477417L270.08437499999997,169.32393537117883" style="fill: none;" fill="none"></path></g></g></g></g></g></g><g transform="translate(51, 177)" clip-path="url(#clip_1)"><clipPath id="clip_1"><rect width="278" height="23"></rect></clipPath><g><g><line x1="0" y1="0" x2="0" y2="5" style="visibility: inherit;" fill="rgb(0, 0, 0)" stroke="rgb(204, 204, 204)" stroke-width="1px"></line><line x1="18.5625" y1="0" x2="18.5625" y2="5" style="visibility: inherit;" fill="rgb(0, 0, 0)" stroke="rgb(204, 204, 204)" stroke-width="1px"></line><line x1="37.125" y1="0" x2="37.125" y2="5" style="visibility: inherit;" fill="rgb(0, 0, 0)" stroke="rgb(204, 204, 204)" stroke-width="1px"></line><line x1="55.6875" y1="0" x2="55.6875" y2="5" style="visibility: inherit;" fill="rgb(0, 0, 0)" stroke="rgb(204, 204, 204)" stroke-width="1px"></line><line x1="74.25" y1="0" x2="74.25" y2="5" style="visibility: inherit;" fill="rgb(0, 0, 0)" stroke="rgb(204, 204, 204)" stroke-width="1px"></line><line x1="92.8125" y1="0" x2="92.8125" y2="5" style="visibility: inherit;" fill="rgb(0, 0, 0)" stroke="rgb(204, 204, 204)" stroke-width="1px"></line><line x1="111.375" y1="0" x2="111.375" y2="5" style="visibility: inherit;" fill="rgb(0, 0, 0)" stroke="rgb(204, 204, 204)" stroke-width="1px"></line><line x1="129.9375" y1="0" x2="129.9375" y2="5" style="visibility: inherit;" fill="rgb(0, 0, 0)" stroke="rgb(204, 204, 204)" stroke-width="1px"></line><line x1="148.5" y1="0" x2="148.5" y2="5" style="visibility: inherit;" fill="rgb(0, 0, 0)" stroke="rgb(204, 204, 204)" stroke-width="1px"></line><line x1="167.0625" y1="0" x2="167.0625" y2="5" style="visibility: inherit;" fill="rgb(0, 0, 0)" stroke="rgb(204, 204, 204)" stroke-width="1px"></line><line x1="185.625" y1="0" x2="185.625" y2="5" style="visibility: inherit;" fill="rgb(0, 0, 0)" stroke="rgb(204, 204, 204)" stroke-width="1px"></line><line x1="204.18749999999997" y1="0" x2="204.18749999999997" y2="5" style="visibility: inherit;" fill="rgb(0, 0, 0)" stroke="rgb(204, 204, 204)" stroke-width="1px"></line><line x1="222.75" y1="0" x2="222.75" y2="5" style="visibility: inherit;" fill="rgb(0, 0, 0)" stroke="rgb(204, 204, 204)" stroke-width="1px"></line><line x1="241.3125" y1="0" x2="241.3125" y2="5" style="visibility: inherit;" fill="rgb(0, 0, 0)" stroke="rgb(204, 204, 204)" stroke-width="1px"></line><line x1="259.875" y1="0" x2="259.875" y2="5" style="visibility: inherit;" fill="rgb(0, 0, 0)" stroke="rgb(204, 204, 204)" stroke-width="1px"></line><line x1="278.4375" y1="0" x2="278.4375" y2="5" style="visibility: inherit;" fill="rgb(0, 0, 0)" stroke="rgb(204, 204, 204)" stroke-width="1px"></line></g><g transform="translate(0, 8)"><text x="0" y="0" dx="0em" dy="0.95em" style="text-anchor: middle; visibility: hidden; font-family: Roboto, sans-serif; font-size: 12px; font-weight: 200;" fill="rgb(33, 33, 33)" stroke="none" stroke-width="1px">-20</text><text x="18.5625" y="0" dx="0em" dy="0.95em" style="text-anchor: middle; visibility: inherit; font-family: Roboto, sans-serif; font-size: 12px; font-weight: 200;" fill="rgb(33, 33, 33)" stroke="none" stroke-width="1px">0</text><text x="37.125" y="0" dx="0em" dy="0.95em" style="text-anchor: middle; visibility: hidden; font-family: Roboto, sans-serif; font-size: 12px; font-weight: 200;" fill="rgb(33, 33, 33)" stroke="none" stroke-width="1px">20</text><text x="55.6875" y="0" dx="0em" dy="0.95em" style="text-anchor: middle; visibility: inherit; font-family: Roboto, sans-serif; font-size: 12px; font-weight: 200;" fill="rgb(33, 33, 33)" stroke="none" stroke-width="1px">40</text><text x="74.25" y="0" dx="0em" dy="0.95em" style="text-anchor: middle; visibility: hidden; font-family: Roboto, sans-serif; font-size: 12px; font-weight: 200;" fill="rgb(33, 33, 33)" stroke="none" stroke-width="1px">60</text><text x="92.8125" y="0" dx="0em" dy="0.95em" style="text-anchor: middle; visibility: inherit; font-family: Roboto, sans-serif; font-size: 12px; font-weight: 200;" fill="rgb(33, 33, 33)" stroke="none" stroke-width="1px">80</text><text x="111.375" y="0" dx="0em" dy="0.95em" style="text-anchor: middle; visibility: hidden; font-family: Roboto, sans-serif; font-size: 12px; font-weight: 200;" fill="rgb(33, 33, 33)" stroke="none" stroke-width="1px">100</text><text x="129.9375" y="0" dx="0em" dy="0.95em" style="text-anchor: middle; visibility: inherit; font-family: Roboto, sans-serif; font-size: 12px; font-weight: 200;" fill="rgb(33, 33, 33)" stroke="none" stroke-width="1px">120</text><text x="148.5" y="0" dx="0em" dy="0.95em" style="text-anchor: middle; visibility: hidden; font-family: Roboto, sans-serif; font-size: 12px; font-weight: 200;" fill="rgb(33, 33, 33)" stroke="none" stroke-width="1px">140</text><text x="167.0625" y="0" dx="0em" dy="0.95em" style="text-anchor: middle; visibility: inherit; font-family: Roboto, sans-serif; font-size: 12px; font-weight: 200;" fill="rgb(33, 33, 33)" stroke="none" stroke-width="1px">160</text><text x="185.625" y="0" dx="0em" dy="0.95em" style="text-anchor: middle; visibility: hidden; font-family: Roboto, sans-serif; font-size: 12px; font-weight: 200;" fill="rgb(33, 33, 33)" stroke="none" stroke-width="1px">180</text><text x="204.18749999999997" y="0" dx="0em" dy="0.95em" style="text-anchor: middle; visibility: inherit; font-family: Roboto, sans-serif; font-size: 12px; font-weight: 200;" fill="rgb(33, 33, 33)" stroke="none" stroke-width="1px">200</text><text x="222.75" y="0" dx="0em" dy="0.95em" style="text-anchor: middle; visibility: hidden; font-family: Roboto, sans-serif; font-size: 12px; font-weight: 200;" fill="rgb(33, 33, 33)" stroke="none" stroke-width="1px">220</text><text x="241.3125" y="0" dx="0em" dy="0.95em" style="text-anchor: middle; visibility: inherit; font-family: Roboto, sans-serif; font-size: 12px; font-weight: 200;" fill="rgb(33, 33, 33)" stroke="none" stroke-width="1px">240</text><text x="259.875" y="0" dx="0em" dy="0.95em" style="text-anchor: middle; visibility: hidden; font-family: Roboto, sans-serif; font-size: 12px; font-weight: 200;" fill="rgb(33, 33, 33)" stroke="none" stroke-width="1px">260</text><text x="278.4375" y="0" dx="0em" dy="0.95em" style="text-anchor: middle; visibility: hidden; font-family: Roboto, sans-serif; font-size: 12px; font-weight: 200;" fill="rgb(33, 33, 33)" stroke="none" stroke-width="1px">280</text></g><line x1="0" y1="0" x2="278.4375" y2="0" fill="rgb(0, 0, 0)" stroke="rgb(204, 204, 204)" stroke-width="1px"></line></g></g></g></g></svg>