<svg viewBox="0 0 330 200" xmlns="http://www.w3.org/2000/svg"><g><g><g><g><g><line x1="50" y1="177" x2="45" y2="177" style="visibility: inherit;" fill="rgb(0, 0, 0)" stroke="rgb(204, 204, 204)" stroke-width="1px"></line><line x1="50" y1="157.33333333333334" x2="45" y2="157.33333333333334" style="visibility: inherit;" fill="rgb(0, 0, 0)" stroke="rgb(204, 204, 204)" stroke-width="1px"></line><line x1="50" y1="137.66666666666666" x2="45" y2="137.66666666666666" style="visibility: inherit;" fill="rgb(0, 0, 0)" stroke="rgb(204, 204, 204)" stroke-width="1px"></line><line x1="50" y1="118" x2="45" y2="118" style="visibility: inherit;" fill="rgb(0, 0, 0)" stroke="rgb(204, 204, 204)" stroke-width="1px"></line><line x1="50" y1="98.33333333333334" x2="45" y2="98.33333333333334" style="visibility: inherit;" fill="rgb(0, 0, 0)" stroke="rgb(204, 204, 204)" stroke-width="1px"></line><line x1="50" y1="78.66666666666664" x2="45" y2="78.66666666666664" style="visibility: inherit;" fill="rgb(0, 0, 0)" stroke="rgb(204, 204, 204)" stroke-width="1px"></line><line x1="50" y1="59.00000000000001" x2="45" y2="59.00000000000001" style="visibility: inherit;" fill="rgb(0, 0, 0)" stroke="rgb(204, 204, 204)" stroke-width="1px"></line><line x1="50" y1="39.33333333333333" x2="45" y2="39.33333333333333" style="visibility: inherit;" fill="rgb(0, 0, 0)" stroke="rgb(204, 204, 204)" stroke-width="1px"></line><line x1="50" y1="19.666666666666675" x2="45" y2="19.666666666666675" style="visibility: inherit;" fill="rgb(0, 0, 0)" stroke="rgb(204, 204, 204)" stroke-width="1px"></line><line x1="50" y1="0" x2="45" y2="0" style="visibility: inherit;" fill="rgb(0, 0, 0)" stroke="rgb(204, 204, 204)" stroke-width="1px"></line></g><g transform="translate(40, 0)"><text x="0" y="177" dx="0em" dy="0.3em" style="text-anchor: end; visibility: hidden; font-family: Roboto, sans-serif; font-size: 12px; font-weight: 200;" fill="rgb(33, 33, 33)" stroke="none" stroke-width="1px">0.3</text><text x="0" y="157.33333333333334" dx="0em" dy="0.3em" style="text-anchor: end; visibility: inherit; font-family: Roboto, sans-serif; font-size: 12px; font-weight: 200;" fill="rgb(33, 33, 33)" stroke="none" stroke-width="1px">0.35</text><text x="0" y="137.66666666666666" dx="0em" dy="0.3em" style="text-anchor: end; visibility: hidden; font-family: Roboto, sans-serif; font-size: 12px; font-weight: 200;" fill="rgb(33, 33, 33)" stroke="none" stroke-width="1px">0.4</text><text x="0" y="118" dx="0em" dy="0.3em" style="text-anchor: end; visibility: inherit; font-family: Roboto, sans-serif; font-size: 12px; font-weight: 200;" fill="rgb(33, 33, 33)" stroke="none" stroke-width="1px">0.45</text><text x="0" y="98.33333333333334" dx="0em" dy="0.3em" style="text-anchor: end; visibility: hidden; font-family: Roboto, sans-serif; font-size: 12px; font-weight: 200;" fill="rgb(33, 33, 33)" stroke="none" stroke-width="1px">0.5</text><text x="0" y="78.66666666666664" dx="0em" dy="0.3em" style="text-anchor: end; visibility: inherit; font-family: Roboto, sans-serif; font-size: 12px; font-weight: 200;" fill="rgb(33, 33, 33)" stroke="none" stroke-width="1px">0.55</text><text x="0" y="59.00000000000001" dx="0em" dy="0.3em" style="text-anchor: end; visibility: hidden; font-family: Roboto, sans-serif; font-size: 12px; font-weight: 200;" fill="rgb(33, 33, 33)" stroke="none" stroke-width="1px">0.6</text><text x="0" y="39.33333333333333" dx="0em" dy="0.3em" style="text-anchor: end; visibility: inherit; font-family: Roboto, sans-serif; font-size: 12px; font-weight: 200;" fill="rgb(33, 33, 33)" stroke="none" stroke-width="1px">0.65</text><text x="0" y="19.666666666666675" dx="0em" dy="0.3em" style="text-anchor: end; visibility: hidden; font-family: Roboto, sans-serif; font-size: 12px; font-weight: 200;" fill="rgb(33, 33, 33)" stroke="none" stroke-width="1px">0.7</text><text x="0" y="0" dx="0em" dy="0.3em" style="text-anchor: end; visibility: hidden; font-family: Roboto, sans-serif; font-size: 12px; font-weight: 200;" fill="rgb(33, 33, 33)" stroke="none" stroke-width="1px">0.75</text></g><line x1="50" y1="0" x2="50" y2="177" fill="rgb(0, 0, 0)" stroke="rgb(204, 204, 204)" stroke-width="1px"></line></g></g><g transform="translate(50, 0)" clip-path="url(#clip_0)"><clipPath id="clip_0"><rect width="280" height="177"></rect></clipPath><g><g><g><line x1="0" y1="0" x2="0" y2="177" fill="rgb(0, 0, 0)" stroke="rgb(66, 66, 66)" stroke-width="1px" opacity="0.25"></line><line x1="18.666666666666668" y1="0" x2="18.666666666666668" y2="177" fill="rgb(0, 0, 0)" stroke="rgb(66, 66, 66)" stroke-width="1px" opacity="0.25"></line><line x1="37.333333333333336" y1="0" x2="37.333333333333336" y2="177" fill="rgb(0, 0, 0)" stroke="rgb(66, 66, 66)" stroke-width="1px" opacity="0.25"></line><line x1="56" y1="0" x2="56" y2="177" fill="rgb(0, 0, 0)" stroke="rgb(66, 66, 66)" stroke-width="1px" opacity="0.25"></line><line x1="74.66666666666667" y1="0" x2="74.66666666666667" y2="177" fill="rgb(0, 0, 0)" stroke="rgb(66, 66, 66)" stroke-width="1px" opacity="0.25"></line><line x1="93.33333333333333" y1="0" x2="93.33333333333333" y2="177" fill="rgb(0, 0, 0)" stroke="rgb(66, 66, 66)" stroke-width="1px" opacity="0.25"></line><line x1="112" y1="0" x2="112" y2="177" fill="rgb(0, 0, 0)" stroke="rgb(66, 66, 66)" stroke-width="1px" opacity="0.25"></line><line x1="130.66666666666666" y1="0" x2="130.66666666666666" y2="177" fill="rgb(0, 0, 0)" stroke="rgb(66, 66, 66)" stroke-width="1px" opacity="0.25"></line><line x1="149.33333333333334" y1="0" x2="149.33333333333334" y2="177" fill="rgb(0, 0, 0)" stroke="rgb(66, 66, 66)" stroke-width="1px" opacity="0.25"></line><line x1="168" y1="0" x2="168" y2="177" fill="rgb(0, 0, 0)" stroke="rgb(66, 66, 66)" stroke-width="1px" opacity="0.25"></line><line x1="186.66666666666666" y1="0" x2="186.66666666666666" y2="177" fill="rgb(0, 0, 0)" stroke="rgb(66, 66, 66)" stroke-width="1px" opacity="0.25"></line><line x1="205.33333333333331" y1="0" x2="205.33333333333331" y2="177" fill="rgb(0, 0, 0)" stroke="rgb(66, 66, 66)" stroke-width="1px" opacity="0.25"></line><line x1="224" y1="0" x2="224" y2="177" fill="rgb(0, 0, 0)" stroke="rgb(66, 66, 66)" stroke-width="1px" opacity="0.25"></line><line x1="242.66666666666669" y1="0" x2="242.66666666666669" y2="177" fill="rgb(0, 0, 0)" stroke="rgb(66, 66, 66)" stroke-width="1px" opacity="0.25"></line><line x1="261.3333333333333" y1="0" x2="261.3333333333333" y2="177" fill="rgb(0, 0, 0)" stroke="rgb(66, 66, 66)" stroke-width="1px" opacity="0.25"></line><line x1="280" y1="0" x2="280" y2="177" fill="rgb(0, 0, 0)" stroke="rgb(66, 66, 66)" stroke-width="1px" opacity="0.25"></line></g><g><line x1="0" y1="177" x2="280" y2="177" fill="rgb(0, 0, 0)" stroke="rgb(66, 66, 66)" stroke-width="1px" opacity="0.25"></line><line x1="0" y1="157.33333333333334" x2="280" y2="157.33333333333334" fill="rgb(0, 0, 0)" stroke="rgb(66, 66, 66)" stroke-width="1px" opacity="0.25"></line><line x1="0" y1="137.66666666666666" x2="280" y2="137.66666666666666" fill="rgb(0, 0, 0)" stroke="rgb(66, 66, 66)" stroke-width="1px" opacity="0.25"></line><line x1="0" y1="118" x2="280" y2="118" fill="rgb(0, 0, 0)" stroke="rgb(66, 66, 66)" stroke-width="1px" opacity="0.25"></line><line x1="0" y1="98.33333333333334" x2="280" y2="98.33333333333334" fill="rgb(0, 0, 0)" stroke="rgb(66, 66, 66)" stroke-width="1px" opacity="0.25"></line><line x1="0" y1="78.66666666666664" x2="280" y2="78.66666666666664" fill="rgb(0, 0, 0)" stroke="rgb(66, 66, 66)" stroke-width="1px" opacity="0.25"></line><line x1="0" y1="59.00000000000001" x2="280" y2="59.00000000000001" fill="rgb(0, 0, 0)" stroke="rgb(66, 66, 66)" stroke-width="1px" opacity="0.25"></line><line x1="0" y1="39.33333333333333" x2="280" y2="39.33333333333333" fill="rgb(0, 0, 0)" stroke="rgb(66, 66, 66)" stroke-width="1px" opacity="0.25"></line><line x1="0" y1="19.666666666666675" x2="280" y2="19.666666666666675" fill="rgb(0, 0, 0)" stroke="rgb(66, 66, 66)" stroke-width="1px" opacity="0.25"></line><line x1="0" y1="0" x2="280" y2="0" fill="rgb(0, 0, 0)" stroke="rgb(66, 66, 66)" stroke-width="1px" opacity="0.25"></line></g></g></g><g><g><line x1="0" y1="295" x2="280" y2="295" fill="rgb(0, 0, 0)" stroke="rgb(153, 153, 153)" stroke-width="1.5px"></line></g></g><g><g><line x1="18.666666666666668" y1="0" x2="18.666666666666668" y2="177" fill="rgb(0, 0, 0)" stroke="rgb(153, 153, 153)" stroke-width="1.5px"></line></g></g><g><g><g><g><g><path stroke="rgb(51, 187, 238)" stroke-width="2px" d="M23.333333333333332,-0.01840148201460634L24.266666666666666,7.137292854890925L25.2,11.50550993017288L26.133333333333333,13.402252527092886L27.066666666666666,12.922440799668202L28,14.294678279380685L28.933333333333334,15.24622703982643L29.866666666666667,16.779576724190537L30.8,18.32594160440563L31.73333333333333,19.191691645452263L32.666666666666664,19.895935402704904L33.6,20.242528808717726L34.53333333333333,20.30575525553644L35.46666666666667,19.817169560662975L36.4,18.649480758903053L37.333333333333336,18.35317771793706L38.266666666666666,18.07949648321289L39.2,18.5243436521066L40.13333333333333,18.222960872757472L41.06666666666667,19.255886798564397L42,17.45774816196468L42.93333333333333,17.8512548615574L43.86666666666667,17.765238023736753L44.800000000000004,16.664729496337838L45.733333333333334,17.738936889831088L46.666666666666664,18.235678891583465L47.6,17.58189567627275L48.53333333333333,17.330986142256805L49.46666666666667,17.422237425056178L50.4,17.73157808328695L51.33333333333333,17.58116820921658L52.266666666666666,17.812931994229416L53.2,18.353796456682982L54.13333333333333,18.097080208129775L55.06666666666666,19.087939235632827L56,18.885227589265433L56.93333333333334,18.743413907474103L57.86666666666667,19.74641800213122L58.8,20.099600796098027L59.733333333333334,19.995381203346795L60.66666666666667,19.410205409292736L61.6,19.782199961601705L62.53333333333333,20.690402806289022L63.46666666666666,21.18150248328179L64.4,22.173215983559327L65.33333333333333,22.711111942237036L66.26666666666667,23.281343402220827L67.2,23.677237335142248L68.13333333333334,24.504569766115523L69.06666666666666,24.90042523089919L70,25.15801185048933L70.93333333333334,25.790982015762392L71.86666666666666,26.472550251453793L72.8,26.59206346904715L73.73333333333332,26.81467550667273L74.66666666666667,27.35836834823915L75.60000000000001,28.208526369650148L76.53333333333333,28.87067401084944L77.46666666666667,29.04667644292834L78.4,29.724250674084573L79.33333333333333,30.771701580143773L80.26666666666667,31.38903308932381L81.19999999999999,32.43437451319248L82.13333333333334,33.28371791264917L83.06666666666668,33.750667901350354L84,34.07157779983865L84.93333333333334,34.94908355184023L85.86666666666666,35.65420481440715L86.8,36.21653949995652L87.73333333333333,37.04405781016255L88.66666666666666,38.11854523029405L89.60000000000001,38.31772641311562L90.53333333333333,39.193092794273575L91.46666666666667,40.283368593805186L92.4,39.97857352240491L93.33333333333333,40.52263078242864L94.26666666666667,41.66503285912234L95.2,42.40794050951217L96.13333333333333,43.05416276708413L97.06666666666666,44.2593914725592L98,44.99601389350637L98.93333333333334,46.10350770041712L99.86666666666667,47.282524630203824L100.8,48.14007807898868L101.73333333333333,48.88847251079214L102.66666666666666,49.73139605448595L103.6,50.29165493051036L104.53333333333333,51.447109435114164L105.46666666666667,52.523172175126305L106.4,53.490595319990405L107.33333333333334,53.86005119855114L108.26666666666667,54.64212928096272L109.2,55.67085643122998L110.13333333333333,56.702990855296946L111.06666666666666,58.181018280538304L112,59.49146581144176L112.93333333333334,60.341509207206L113.86666666666667,62.22176143404801L114.8,63.35147852821756L115.73333333333333,63.69418390048295L116.66666666666667,64.69561888464074L117.6,65.24392642289017L118.53333333333333,65.98819366613372L119.46666666666667,66.99599941001004L120.39999999999999,67.89616085806233L121.33333333333334,69.64905267025122L122.26666666666667,70.70008652037326L123.2,72.20575359441554L124.13333333333334,73.61661668587705L125.06666666666666,74.64862618271992L126,76.04785027130448L126.93333333333332,76.7089489214927L127.86666666666666,78.0294666888587L128.8,79.02039218875065L129.73333333333332,80.88047453461499L130.66666666666666,81.94310806245905L131.6,82.41395768473811L132.53333333333333,83.40009227813997L133.46666666666667,83.76556574801864L134.4,85.35248733307586L135.33333333333334,86.75003411385444L136.26666666666668,87.23544115807806L137.2,87.83421217964408L138.13333333333333,88.771975932789L139.06666666666666,89.83993589263477L140,91.63967949142904L140.93333333333334,92.4567930916175L141.86666666666667,93.1768892472081L142.8,94.11652982043655L143.73333333333332,94.54008553921058L144.66666666666669,96.23796885013373L145.6,96.88508921622305L146.53333333333333,98.05509529306943L147.46666666666664,98.77385074882417L148.4,99.98176561740935L149.33333333333334,101.13376314491259L150.26666666666665,101.62074711587621L151.20000000000002,102.28492672456589L152.13333333333333,103.24236169526137L153.06666666666666,103.84601909755169L154,104.82263957410471L154.93333333333334,105.91934152804997L155.86666666666667,107.28338532825751L156.8,108.15568563372392L157.73333333333335,108.41949736945017L158.66666666666666,108.5482209555666L159.6,109.20749888944175L160.53333333333333,110.23914900734252L161.46666666666667,110.92097850998886L162.39999999999998,111.96824437036959L163.33333333333334,113.51591375208794L164.26666666666668,114.43070866482962L165.2,114.00981289274705L166.13333333333335,114.74566799042643L167.06666666666666,115.62507666617941L168,115.67148465383873L168.93333333333334,117.56444542206219L169.86666666666667,117.65002689965014L170.79999999999998,119.05229854035859L171.73333333333332,120.41100750471249L172.66666666666669,121.1754511932145L173.6,122.50944223888864L174.53333333333333,122.62706165286546L175.46666666666667,123.4096192685961L176.4,123.4523706110912L177.33333333333331,124.98659546427568L178.26666666666668,125.11421449218102L179.20000000000002,126.10346599429971L180.13333333333333,126.45659194253255L181.06666666666666,126.16480971701377L182,126.72993800650991L182.93333333333334,127.53488544735603L183.86666666666665,128.77124317573765L184.8,129.77651467171196L185.73333333333332,130.19840632443913L186.66666666666666,131.0521113101797L187.60000000000002,131.6363300798331L188.53333333333333,132.26003533208552L189.46666666666667,132.67667833094828L190.4,133.45407602991307L191.33333333333334,133.091338371632L192.26666666666665,133.8852413576891L193.2,133.76048800981138L194.13333333333333,135.04620660616064L195.06666666666666,135.57578601869724L196,136.37268997107168L196.93333333333334,136.41014405522628L197.86666666666667,136.60691279674484L198.79999999999998,136.80797863582364L199.73333333333335,137.10765482223593L200.66666666666666,138.19940705416397L201.6,138.87609921903305L202.53333333333336,139.39049203508944L203.46666666666667,139.93448922364325L204.4,140.42696763940225L205.33333333333331,141.3379532995492L206.26666666666668,141.8308033676723L207.2,141.2203717832654L208.13333333333333,141.90285201196622L209.06666666666666,142.24051702001958L210,141.75435329475962L210.93333333333334,143.15916065995245L211.86666666666667,143.93112945883186L212.8,144.86188281395792L213.73333333333332,144.80030675875147L214.66666666666669,145.9640045443422L215.6,145.635256328031L216.53333333333333,146.56935208448195L217.46666666666664,147.8354133525878L218.4,148.48432331751349L219.33333333333334,149.20025443133696L220.26666666666665,149.72215017970404L221.20000000000002,150.59724263087097L222.13333333333333,150.43623481791647L223.06666666666666,150.6069401105672L224,150.84314714005296L224.93333333333334,152.21705642434173L225.86666666666667,151.8888318799039L226.8,153.5203855845194L227.73333333333335,155.19222197458043L228.66666666666666,155.1057902908639L229.6,155.31481478551453L230.53333333333333,155.27594703046378L231.46666666666667,156.47111105238764L232.39999999999998,156.54292337915666L233.33333333333334,156.6725500109259L234.26666666666668,157.73893179081577L235.2,158.00315010006742L236.13333333333335,158.39122267851752L237.06666666666666,159.60299294124155L238,160.4696930927539L238.93333333333334,159.95699062709954L239.86666666666667,159.64738672561597L240.79999999999998,160.52767675016642L241.73333333333332,161.09426077606804L242.66666666666669,161.44205294506938L243.6,162.25201096699212L244.53333333333333,162.25760045379147L245.46666666666667,162.45579279837023L246.4,163.112963402372L247.33333333333331,163.1398278600174L248.26666666666668,163.18678557091735L249.20000000000002,163.22634196008713L250.13333333333333,163.85530127695523L251.06666666666666,164.91082690121254L252,164.0502355445802L252.93333333333334,164.1459278567791L253.86666666666665,164.2132766987201L254.8,164.34152660425545L255.73333333333332,164.3162683328554L256.66666666666663,164.3161284410035L257.6,164.91152961381817L258.53333333333336,166.0690486450757L259.46666666666664,167.29527900183524L260.40000000000003,167.58130861059786L261.3333333333333,167.95304052939932L262.26666666666665,169.4880624640084L263.2,169.68489197350274L264.1333333333333,169.71135945628367L265.06666666666666,171.71918024162417L266,171.5205684357945L266.93333333333334,172.09706258565248L267.8666666666667,171.85130229171068L268.8,172.85907258403572L269.73333333333335,171.74656821064076L270.6666666666667,171.54495384587386L271.59999999999997,172.8309960019453" style="fill: none;" fill="none"></path></g></g></g></g><g opacity="0.2"><g><g><g><path stroke="rgb(51, 187, 238)" stroke-width="2px" d="M21.466666666666665,-1.2751928965250738L22.400000000000002,12.73465037345887L23.333333333333332,14.509515762329094L24.266666666666666,18.07469646135966L25.2,18.45280925432841L26.133333333333333,16.492755810419727L27.066666666666666,12.12889154752096L28,16.58533811569213L28.933333333333334,16.84386054674785L29.866666666666667,19.36339338620503L30.8,20.93762079874674L31.73333333333333,20.65595865249633L32.666666666666664,21.08811100323994L33.6,20.82958857218424L34.53333333333333,20.412886142730706L35.46666666666667,18.989125490188606L36.4,16.670230627059944L37.333333333333336,17.850895325342808L38.266666666666666,17.61553605397543L39.2,19.27850087483724L40.13333333333333,17.712010145187378L41.06666666666667,21.007086833318066L42,14.409196774164839L42.93333333333333,18.518406947453823L43.86666666666667,17.619404395421345L44.800000000000004,14.798914591471357L45.733333333333334,19.560163021087646L46.666666666666664,19.0778628985087L47.6,16.473460992177326L48.53333333333333,16.905589898427326L49.46666666666667,17.576946417490642L50.4,18.256039619445794L51.33333333333333,17.326160669326775L52.266666666666666,18.20586840311687L53.2,19.270787636439014L54.13333333333333,17.661838928858433L55.06666666666666,20.767859220504768L56,18.54154666264851L56.93333333333334,18.502980470657356L57.86666666666667,21.44692897796631L58.8,20.698393185933423L59.733333333333334,19.818685452143345L60.66666666666667,18.418087959289544L61.6,20.412886142730706L62.53333333333333,22.230186065038044L63.46666666666666,22.014121611913044L64.4,23.8545846939087L65.33333333333333,23.623070319493603L66.26666666666667,24.248123963673915L67.2,24.34844295183817L68.13333333333334,25.907243887583416L69.06666666666666,25.571565628051758L70,25.594728787740078L70.93333333333334,26.86413089434306L71.86666666666666,27.628093163172412L72.8,26.794688304265346L73.73333333333332,27.192095915476475L74.66666666666667,28.280154863993328L75.60000000000001,29.6498994032542L76.53333333333333,29.993290901184082L77.46666666666667,29.34507409731547L78.4,30.873022079467766L79.33333333333333,32.54756848017376L80.26666666666667,32.43566791216532L81.19999999999999,34.20666495958965L82.13333333333334,34.72370982170105L83.06666666666668,34.542343219121285L84,34.61565415064494L84.93333333333334,36.43682241439819L85.86666666666666,36.84967994689942L86.8,37.16993172963459L87.73333333333333,38.44704707463582L88.66666666666666,39.94025031725566L89.60000000000001,38.65542173385621L90.53333333333333,40.67720452944439L91.46666666666667,42.13184158007305L92.4,39.46181853612263L93.33333333333333,41.44503513971966L94.26666666666667,43.60188166300457L95.2,43.66747935612995L96.13333333333333,44.1497794787089L97.06666666666666,46.3027576605479L98,46.24489665031434L98.93333333333334,47.98117240269978L99.86666666666667,49.28145090738933L100.8,49.59398945172627L101.73333333333333,50.157313744227096L102.66666666666666,51.160503625869744L103.6,51.24152779579162L104.53333333333333,53.40608755747478L105.46666666666667,54.34754808743795L106.4,55.130781730016075L107.33333333333334,54.486433267593384L108.26666666666667,55.96807837486267L109.2,57.41497874259948L110.13333333333333,58.452889919281L111.06666666666666,60.68689227104187L112,61.71322186787923L112.93333333333334,61.782687902450554L113.86666666666667,65.40957450866699L114.8,65.26682098706564L115.73333333333333,64.27521268526712L116.66666666666667,66.39346957206726L117.6,66.17353677749634L118.53333333333333,67.25003759066264L119.46666666666667,68.7046511967977L120.39999999999999,69.42231059074402L121.33333333333334,72.62093663215637L122.26666666666667,72.48202800750732L123.2,74.7584883371989L124.13333333333334,76.0086190700531L125.06666666666666,76.398313442866L126,78.42011968294779L126.93333333333332,77.82978733380637L127.86666666666666,80.26829600334167L128.8,80.70042490959167L129.73333333333332,84.03409123420715L130.66666666666666,83.7447158495585L131.6,83.21224451065063L132.53333333333333,85.07200241088867L133.46666666666667,84.38519597053528L134.4,88.04298241933186L135.33333333333334,89.11945978800455L136.26666666666668,88.05840889612833L137.2,88.8493792215983L138.13333333333333,90.36187728246053L139.06666666666666,91.65057420730591L140,94.69099680582683L140.93333333333334,93.84214202562968L141.86666666666667,94.39775307973227L142.8,95.70961316426595L143.73333333333332,95.25818943977355L144.66666666666669,99.11659042040507L145.6,97.98222859700522L146.53333333333333,100.03874440987906L147.46666666666664,99.99244153499603L148.4,102.0296859741211L149.33333333333334,103.0868802467982L150.26666666666665,102.44638840357463L151.20000000000002,103.4109886487325L152.13333333333333,104.86561397711436L153.06666666666666,104.86947059631346L154,106.47841930389404L154.93333333333334,107.77870953083038L155.86666666666667,109.59600945313773L156.8,109.63459908962248L157.73333333333335,108.86676847934721L158.66666666666666,108.76646121342978L159.6,110.3252504269282L160.53333333333333,111.98822697003683L161.46666666666667,112.07696437835693L162.39999999999998,113.74379754066467L163.33333333333334,116.13985995451608L164.26666666666668,115.98166823387146L165.2,113.2962187131246L166.13333333333335,115.9932498137156L167.06666666666666,117.11604177951811L168,115.75016558170319L168.93333333333334,120.7738047838211L169.86666666666667,117.79512325922649L170.79999999999998,121.42973482608794L171.73333333333332,122.71458685398102L172.66666666666669,122.47150262196858L173.6,124.77111438910167L174.53333333333333,122.82647569974264L175.46666666666667,124.736381371816L176.4,123.52485199769337L177.33333333333331,127.58774757385254L178.26666666666668,125.33058206240337L179.20000000000002,127.78066058953604L180.13333333333333,127.05528795719147L181.06666666666666,125.67011694113413L182,127.6880665620168L182.93333333333334,128.89960765838623L183.86666666666665,130.86738606293997L184.8,131.48086984952292L185.73333333333332,130.91368893782297L186.66666666666666,132.49949793020883L187.60000000000002,132.62682497501373L188.53333333333333,133.31747631231946L189.46666666666667,133.38306228319803L190.4,134.77208991845447L191.33333333333334,132.47634649276733L192.26666666666665,135.23123860359192L193.2,133.5489789644877L194.13333333333333,137.22603678703308L195.06666666666666,136.4736443758011L196,137.72377510865527L196.93333333333334,136.4736443758011L197.86666666666667,136.94051802158356L198.79999999999998,137.14886923631033L199.73333333333335,137.61573115984598L200.66666666666666,140.0503832101822L201.6,140.02337515354156L202.53333333333336,140.2626027663549L203.46666666666667,140.85679173469543L204.4,141.2619243065516L205.33333333333331,142.88245459397635L206.26666666666668,142.66639014085135L207.2,140.18543521563214L208.13333333333333,143.05994113286337L209.06666666666666,142.8130002816518L210,140.93010266621908L210.93333333333334,145.54089605808258L211.86666666666667,145.23993909358978L212.8,146.43989861011505L213.73333333333332,144.69590961933136L214.66666666666669,147.936958471934L215.6,145.07789075374603L216.53333333333333,148.15303464730582L217.46666666666664,149.9819161494573L218.4,149.58449681599936L219.33333333333334,150.4140567779541L220.26666666666665,150.6069815158844L221.20000000000002,152.08088994026184L222.13333333333333,150.16325930754343L223.06666666666666,150.89635690053305L224,151.24361673990884L224.93333333333334,154.54640666643778L225.86666666666667,151.33235414822894L226.8,156.28655076026917L227.73333333333335,158.02668313185373L228.66666666666666,154.9592524766922L229.6,155.6691986322403L230.53333333333333,155.21004994710287L231.46666666666667,158.49741339683533L232.39999999999998,156.6646752754847L233.33333333333334,156.89232130845386L234.26666666666668,159.5468944311142L235.2,158.4511105219523L236.13333333333335,159.04916783173877L237.06666666666666,161.65744980176288L238,161.9391119480133L238.93333333333334,159.08774574597678L239.86666666666667,159.12247876326242L240.79999999999998,162.02013611793518L241.73333333333332,162.05485741297403L242.66666666666669,162.03170597553253L243.6,163.62522820631662L244.53333333333333,162.26707696914673L245.46666666666667,162.79181162516275L246.4,164.22714213530222L247.33333333333331,163.1853743394216L248.26666666666668,163.26639850934347L249.20000000000002,163.2934065659841L250.13333333333333,164.92165009180704L251.06666666666666,166.7003838221232L252,162.59117364883423L252.93333333333334,164.3081663052241L253.86666666666665,164.3274611234665L254.8,164.55896377563477L255.73333333333332,164.27344501018524L256.66666666666663,164.31589126586914L257.6,165.92098335425058L258.53333333333336,168.0315270026525L259.46666666666664,169.3742517630259L260.40000000000003,168.06624829769135L261.3333333333333,168.58328143755594L262.26666666666665,172.09056595961252L263.2,170.0186002254486L264.1333333333333,169.75623289744058L265.06666666666666,175.1232753197352L266,171.18383844693503L266.93333333333334,173.0744610230128L267.8666666666667,171.43463591734567L268.8,174.56766426563263L269.73333333333335,169.86040850480396L270.6666666666667,171.2031332651774L271.59999999999997,175.01137475172678" style="fill: none;" fill="none"></path></g></g></g></g></g></g><g transform="translate(50, 177)" clip-path="url(#clip_1)"><clipPath id="clip_1"><rect width="280" height="23"></rect></clipPath><g><g><line x1="0" y1="0" x2="0" y2="5" style="visibility: inherit;" fill="rgb(0, 0, 0)" stroke="rgb(204, 204, 204)" stroke-width="1px"></line><line x1="18.666666666666668" y1="0" x2="18.666666666666668" y2="5" style="visibility: inherit;" fill="rgb(0, 0, 0)" stroke="rgb(204, 204, 204)" stroke-width="1px"></line><line x1="37.333333333333336" y1="0" x2="37.333333333333336" y2="5" style="visibility: inherit;" fill="rgb(0, 0, 0)" stroke="rgb(204, 204, 204)" stroke-width="1px"></line><line x1="56" y1="0" x2="56" y2="5" style="visibility: inherit;" fill="rgb(0, 0, 0)" stroke="rgb(204, 204, 204)" stroke-width="1px"></line><line x1="74.66666666666667" y1="0" x2="74.66666666666667" y2="5" style="visibility: inherit;" fill="rgb(0, 0, 0)" stroke="rgb(204, 204, 204)" stroke-width="1px"></line><line x1="93.33333333333333" y1="0" x2="93.33333333333333" y2="5" style="visibility: inherit;" fill="rgb(0, 0, 0)" stroke="rgb(204, 204, 204)" stroke-width="1px"></line><line x1="112" y1="0" x2="112" y2="5" style="visibility: inherit;" fill="rgb(0, 0, 0)" stroke="rgb(204, 204, 204)" stroke-width="1px"></line><line x1="130.66666666666666" y1="0" x2="130.66666666666666" y2="5" style="visibility: inherit;" fill="rgb(0, 0, 0)" stroke="rgb(204, 204, 204)" stroke-width="1px"></line><line x1="149.33333333333334" y1="0" x2="149.33333333333334" y2="5" style="visibility: inherit;" fill="rgb(0, 0, 0)" stroke="rgb(204, 204, 204)" stroke-width="1px"></line><line x1="168" y1="0" x2="168" y2="5" style="visibility: inherit;" fill="rgb(0, 0, 0)" stroke="rgb(204, 204, 204)" stroke-width="1px"></line><line x1="186.66666666666666" y1="0" x2="186.66666666666666" y2="5" style="visibility: inherit;" fill="rgb(0, 0, 0)" stroke="rgb(204, 204, 204)" stroke-width="1px"></line><line x1="205.33333333333331" y1="0" x2="205.33333333333331" y2="5" style="visibility: inherit;" fill="rgb(0, 0, 0)" stroke="rgb(204, 204, 204)" stroke-width="1px"></line><line x1="224" y1="0" x2="224" y2="5" style="visibility: inherit;" fill="rgb(0, 0, 0)" stroke="rgb(204, 204, 204)" stroke-width="1px"></line><line x1="242.66666666666669" y1="0" x2="242.66666666666669" y2="5" style="visibility: inherit;" fill="rgb(0, 0, 0)" stroke="rgb(204, 204, 204)" stroke-width="1px"></line><line x1="261.3333333333333" y1="0" x2="261.3333333333333" y2="5" style="visibility: inherit;" fill="rgb(0, 0, 0)" stroke="rgb(204, 204, 204)" stroke-width="1px"></line><line x1="280" y1="0" x2="280" y2="5" style="visibility: inherit;" fill="rgb(0, 0, 0)" stroke="rgb(204, 204, 204)" stroke-width="1px"></line></g><g transform="translate(0, 8)"><text x="0" y="0" dx="0em" dy="0.95em" style="text-anchor: middle; visibility: hidden; font-family: Roboto, sans-serif; font-size: 12px; font-weight: 200;" fill="rgb(33, 33, 33)" stroke="none" stroke-width="1px">-20</text><text x="18.666666666666668" y="0" dx="0em" dy="0.95em" style="text-anchor: middle; visibility: inherit; font-family: Roboto, sans-serif; font-size: 12px; font-weight: 200;" fill="rgb(33, 33, 33)" stroke="none" stroke-width="1px">0</text><text x="37.333333333333336" y="0" dx="0em" dy="0.95em" style="text-anchor: middle; visibility: hidden; font-family: Roboto, sans-serif; font-size: 12px; font-weight: 200;" fill="rgb(33, 33, 33)" stroke="none" stroke-width="1px">20</text><text x="56" y="0" dx="0em" dy="0.95em" style="text-anchor: middle; visibility: inherit; font-family: Roboto, sans-serif; font-size: 12px; font-weight: 200;" fill="rgb(33, 33, 33)" stroke="none" stroke-width="1px">40</text><text x="74.66666666666667" y="0" dx="0em" dy="0.95em" style="text-anchor: middle; visibility: hidden; font-family: Roboto, sans-serif; font-size: 12px; font-weight: 200;" fill="rgb(33, 33, 33)" stroke="none" stroke-width="1px">60</text><text x="93.33333333333333" y="0" dx="0em" dy="0.95em" style="text-anchor: middle; visibility: inherit; font-family: Roboto, sans-serif; font-size: 12px; font-weight: 200;" fill="rgb(33, 33, 33)" stroke="none" stroke-width="1px">80</text><text x="112" y="0" dx="0em" dy="0.95em" style="text-anchor: middle; visibility: hidden; font-family: Roboto, sans-serif; font-size: 12px; font-weight: 200;" fill="rgb(33, 33, 33)" stroke="none" stroke-width="1px">100</text><text x="130.66666666666666" y="0" dx="0em" dy="0.95em" style="text-anchor: middle; visibility: inherit; font-family: Roboto, sans-serif; font-size: 12px; font-weight: 200;" fill="rgb(33, 33, 33)" stroke="none" stroke-width="1px">120</text><text x="149.33333333333334" y="0" dx="0em" dy="0.95em" style="text-anchor: middle; visibility: hidden; font-family: Roboto, sans-serif; font-size: 12px; font-weight: 200;" fill="rgb(33, 33, 33)" stroke="none" stroke-width="1px">140</text><text x="168" y="0" dx="0em" dy="0.95em" style="text-anchor: middle; visibility: inherit; font-family: Roboto, sans-serif; font-size: 12px; font-weight: 200;" fill="rgb(33, 33, 33)" stroke="none" stroke-width="1px">160</text><text x="186.66666666666666" y="0" dx="0em" dy="0.95em" style="text-anchor: middle; visibility: hidden; font-family: Roboto, sans-serif; font-size: 12px; font-weight: 200;" fill="rgb(33, 33, 33)" stroke="none" stroke-width="1px">180</text><text x="205.33333333333331" y="0" dx="0em" dy="0.95em" style="text-anchor: middle; visibility: inherit; font-family: Roboto, sans-serif; font-size: 12px; font-weight: 200;" fill="rgb(33, 33, 33)" stroke="none" stroke-width="1px">200</text><text x="224" y="0" dx="0em" dy="0.95em" style="text-anchor: middle; visibility: hidden; font-family: Roboto, sans-serif; font-size: 12px; font-weight: 200;" fill="rgb(33, 33, 33)" stroke="none" stroke-width="1px">220</text><text x="242.66666666666669" y="0" dx="0em" dy="0.95em" style="text-anchor: middle; visibility: inherit; font-family: Roboto, sans-serif; font-size: 12px; font-weight: 200;" fill="rgb(33, 33, 33)" stroke="none" stroke-width="1px">240</text><text x="261.3333333333333" y="0" dx="0em" dy="0.95em" style="text-anchor: middle; visibility: hidden; font-family: Roboto, sans-serif; font-size: 12px; font-weight: 200;" fill="rgb(33, 33, 33)" stroke="none" stroke-width="1px">260</text><text x="280" y="0" dx="0em" dy="0.95em" style="text-anchor: middle; visibility: hidden; font-family: Roboto, sans-serif; font-size: 12px; font-weight: 200;" fill="rgb(33, 33, 33)" stroke="none" stroke-width="1px">280</text></g><line x1="0" y1="0" x2="280" y2="0" fill="rgb(0, 0, 0)" stroke="rgb(204, 204, 204)" stroke-width="1px"></line></g></g></g></g></svg>